<?xml version="1.0" standalone="no"?>
<!DOCTYPE svg PUBLIC "-//W3C//DTD SVG 1.1//EN" "http://www.w3.org/Graphics/SVG/1.1/DTD/svg11.dtd">
<svg xmlns="http://www.w3.org/2000/svg">
<metadata>Copyright (C) 2023 by original authors @ fontello.com</metadata>
<defs>
<font id="fontello" horiz-adv-x="1000" >
<font-face font-family="fontello" font-weight="400" font-stretch="normal" units-per-em="1000" ascent="850" descent="-150" />
<missing-glyph horiz-adv-x="1000" />
<glyph glyph-name="cafeteria" unicode="&#xe800;" d="M371 316c-9 11-17 21-27 27-12 8-25 12-45 8-12-2-26 2-38 8-15 7-29 18-39 28-57 52-111 107-166 162-4 4-9 9-13 14-27 27-40 56-42 84-2 29 9 57 33 81l1 1c24 23 53 33 82 31 29-2 58-17 83-42 62-63 136-137 210-211l71-72 34 37c-19 27-28 46-26 67 3 24 20 44 52 77l36 36c49 48 97 97 145 145l4 3c21 22 45 46 79 11 37-36 11-62-13-86l-153-150 23-19c27 28 67 70 100 104 23 23 42 43 50 50 5 8 38 50 80 31 4-2 9-5 13-9 5-6 10-13 11-23 1-9 0-19-5-30-5-10-14-23-27-36-26-26-52-52-77-78-19-20-38-39-58-59-5-5-11-12-18-18l17-16 33 33c39 39 78 78 117 117 10 10 20 20 33 25 16 7 33 6 50-11 33-31 16-55-4-76-2-2-4-5-6-7l-2-1c-52-53-105-106-158-159l-26-25c-31-32-53-48-78-49-22-1-43 9-71 31l-32-35c5-6 11-12 18-19l117-117c41-41 83-83 157-157l1-1c20-21 31-43 33-64 3-22-5-43-23-61l0-1c-19-18-40-26-63-23-20 2-42 14-63 36-73 72-145 144-218 218l-75 75c-7-7-14-13-21-20-31-31-62-63-94-94-61-61-122-122-183-183-18-17-39-27-59-30-12-1-23 0-34 3-11 3-21 9-29 17-11 11-18 26-20 44-2 14 1 29 7 44 6 15 16 30 26 41 65 67 131 134 198 200 24 24 48 48 72 72 7 7 13 14 20 21l0 0 0 0z m-7 58c18-12 31-29 46-48l9-12-10-12c-4-4-8-7-11-11-7-8-14-15-21-22-24-24-48-48-73-72-66-66-132-132-197-200-7-7-14-18-18-29-4-9-6-18-5-25 1-10 5-17 10-23 4-4 9-6 14-8 6-2 12-2 19-1 12 1 25 8 37 19 61 61 122 122 183 183 32 32 63 63 95 94 7 7 14 14 23 22 2 2 4 4 11 11l13 12 100-100c73-74 145-146 217-218 16-16 30-24 43-26 11-1 22 4 32 14l0 0c10 10 14 21 13 32-1 13-9 27-23 41l-1 1c-31 31-94 94-157 157-20 20-37 37-118 118-6 7-14 15-21 22-1 1-2 3-8 9l-12 13 78 84 13-10c29-23 46-34 60-34 14 1 29 14 54 39l26 25c53 53 106 106 158 158l2 2c1 2 3 4 5 6 8 8 14 16 6 24-5 4-9 5-12 4-6-3-13-10-20-17-39-39-78-78-117-117l-57-58-71 64 13 14c3 3 7 8 11 12 7 7 13 14 20 21 19 19 38 39 57 58 26 27 52 53 78 79 10 10 16 18 19 25 2 5 3 8 3 10-1 1-1 2-2 3 0 0-1 0-1 1-17 8-36-20-36-20l-4-4c-1-1-22-22-49-50-37-38-86-89-112-116l-12-13-79 68 181 178c12 11 24 24 13 34-8 9-18-1-27-10l-4-4c-48-48-97-97-145-145l-36-36c-26-26-40-42-41-55-2-12 8-28 27-54l9-12-80-87-14 14c-28 28-56 56-84 85-66 66-131 132-210 211-19 19-40 30-60 31-19 2-37-5-53-21l-1-1c-16-16-24-34-23-52 2-20 12-41 32-61l13-13c54-55 108-109 165-162 8-7 19-16 30-21 6-3 12-5 16-4 30 5 52-1 71-14z" horiz-adv-x="1000" />

<glyph glyph-name="time-location" unicode="&#xe801;" d="M321-150c-14 0-26 10-28 23-17 99-118 275-205 419-1 1-53 90-67 126-21 50-26 109-15 170a314 314 0 0 0 103 182 336 336 0 0 0 217 80c80 0 156-28 215-80 52-44 87-103 102-170a327 327 0 0 0-9-169c-5-15-21-22-36-18-15 5-23 21-18 36a274 274 0 0 1 7 139 252 252 0 0 1-83 139c-49 43-112 66-178 66a274 274 0 0 1-180-66 261 261 0 0 1-85-149c-8-50-5-98 12-139 11-27 54-102 63-119 95-156 194-330 212-437 3-16-7-31-23-33z m446 278h-77v77a28 28 0 1 1-57 0v-105a28 28 0 0 1 28-29h107a28 28 0 0 1 28 29c0 15-13 28-29 28z m142-28c0 136-111 248-248 248s-248-111-248-248 111-248 248-248 248 111 248 248z m-56 0c0-106-86-192-192-192s-191 87-191 192 86 191 191 191 192-86 192-191z m-436 439a92 92 0 0 1-91 92c-51 0-92-41-92-92s41-91 92-91a92 92 0 0 1 91 91z m-56 0a35 35 0 1 0-35 36 35 35 0 0 0 35-36z" horiz-adv-x="909" />

<glyph glyph-name="report" unicode="&#xe802;" d="M696 232c-12 0-22 10-22 22v396h-37v-396c0-12-10-22-21-22s-22 10-22 22v418c0 12 10 21 22 21h80c12 0 21-9 21-21v-418c0-12-9-22-21-22z m-134 22v177c0 12-10 21-22 21h-80c-12 0-22-9-22-21v-177c0-12 10-22 22-22 12 0 21 10 21 22v155h38v-155c0-12 9-22 21-22s22 10 22 22z m-156 0v289c0 12-10 22-22 22h-80c-12 0-21-10-21-22v-289c0-12 9-22 21-22 12 0 22 10 22 22v268h37v-268c0-12 10-22 22-22s21 10 21 22z m521-339v870c0 35-29 65-65 65h-724c-36 0-65-30-65-65v-870c0-35 29-65 65-65h724c36 0 65 30 65 65z m-65 892c12 0 22-10 22-22v-870c0-12-10-22-22-22h-724c-12 0-22 10-22 22v870c0 12 10 22 22 22h724z m-82-646c0 11-10 21-21 21h-517c-12 0-22-10-22-21 0-12 10-22 22-22h517c11 0 21 10 21 22z m0-124c0 12-10 22-21 22h-517c-12 0-22-10-22-22 0-12 10-21 22-21h517c11 0 21 9 21 21z" horiz-adv-x="1000" />

<glyph glyph-name="search" unicode="&#xe804;" d="M987-94l-218 218c69 79 106 178 106 284 0 116-46 225-129 307-82 82-189 126-303 126-1 0-2 0-3 0-240 0-435-195-435-435 0-114 45-223 127-305 82-83 190-128 305-128 1 0 2 0 3 0 108 0 210 39 290 111l217-217c6-6 13-8 20-8 7 0 14 2 20 8 11 11 11 28 0 39z m-547 123c-1 0-2 0-3 0-207 0-376 169-376 377 0 209 170 379 379 379 1 0 2 0 3 0 99 0 193-38 264-109 72-72 112-167 112-268 0-102-40-197-112-269-71-71-166-110-267-110z" horiz-adv-x="1000" />

<glyph glyph-name="plus-squared" unicode="&#xe806;" d="M700 750q42 0 71-29t29-71l0-600q0-40-29-70t-71-30l-600 0q-40 0-70 30t-30 70l0 600q0 42 30 71t70 29l600 0z m-50-450l0 100-200 0 0 200-100 0 0-200-200 0 0-100 200 0 0-200 100 0 0 200 200 0z" horiz-adv-x="800" />

<glyph glyph-name="employee" unicode="&#xe807;" d="M495-150c195 0 364 109 451 269 3 6 6 35 4 43-5 36-22 64-58 77-29 10-58 21-87 30-28 9-57 17-85 26-14 4-25 11-35 23-12 14-27 25-43 35-15 11-21 24-24 41-5 31 5 58 15 85 6 18 15 36 24 53 14 26 21 54 18 83-1 5-2 10-4 13-7 8-8 18-9 29-1 16-1 34-2 50-1 12-3 23-5 34-7 30-26 51-48 70-11 10-26 12-40 15-7 1-15 2-22 3-11 1-20 4-29 10-13 10-29 12-44 11-22-3-43-6-64-11-30-7-54-26-73-51-10-12-19-24-28-36-13-18-17-39-20-60-6-44-3-87 2-130 1-6 2-13 2-19 1-19 12-32 24-45 4-5 9-10 13-15 10-11 17-23 22-38 4-15 11-29 18-43 7-13 9-28 10-42 1-4-3-12-7-14-19-8-32-24-45-39-12-15-26-26-43-32-46-16-92-31-138-46-20-7-40-12-60-17-14-4-21-12-24-25-4-16-8-32-11-48-2-7 0-29 2-34 89-153 254-255 443-255z m22 411c26 23 53 47 80 70 8 8 18 14 26 21 5 5 9 4 13 0 4-4 9-7 12-11 3-3 4-7 6-10-4-26-7-51-11-75-1-6-4-11-8-15-14-20-29-39-43-59-4-5-8-6-14-1-20 21-41 42-62 63-7 7-6 10 1 17z m-15-74c9 9 18 18 28 26 1 1 7 0 9-2 13-11 25-23 38-34 9-7 9-8 17 1 13 16 25 33 38 50 1 1 3 3 6 5-11-85-30-168-48-251-2 0-3 0-4 0-2 4-3 7-5 10-24 56-47 113-71 169-2 5-6 10-8 15-1 3-2 9 0 11z m-47-27c-12-41-23-83-35-125-1-2-2-4-2-7-1 0-2 0-3 0-24 51-39 105-48 161 1 0 1 0 2 1 5-10 10-19 16-30 20 18 38 35 58 54 2-6 5-11 8-15 8-13 8-25 4-39z m-106 165c5 4 10 8 16 13 3 2 7 3 10 6 5 7 10 4 14-1 24-25 48-51 71-77 7-7 7-11 0-19-16-19-33-37-50-56-6-6-13-12-19-18-4-4-8-3-10 1-5 12-12 24-14 36-9 36-15 72-23 107 2 4 3 6 5 8z" horiz-adv-x="1000" />

<glyph glyph-name="compliance" unicode="&#xe808;" d="M774 442c0-37-2-75 0-112 5-80-26-145-76-204-49-56-109-99-169-142-13-10-29-13-43-3-86 58-169 119-222 210-20 34-31 73-31 113-1 99-1 197-1 296 0 16 8 22 22 23 21 2 41 3 62 7 64 11 116 46 165 86 16 13 29 15 45 0 61-58 134-85 216-92 31-3 32-5 32-36-1-49-1-98 0-146-1 0-1 0 0 0z m-62 106c0 6-7 16-12 17-65 7-120 36-171 73-18 13-32 13-49 1-51-36-106-63-168-72-18-2-21-9-21-25 1-72 1-144 0-215-1-59 19-109 56-154 41-49 92-87 145-123 5-3 17-2 23 2 60 39 113 85 158 142 20 26 34 54 35 87 2 48 5 226 4 267z m-334-330c7 19 14 39 21 58 2 6 6 12 10 17 60 61 121 122 182 182 4 4 8 7 12 10 5 3 6 5 13 0 9-9 23-22 32-32 9-9 4-14-4-23-63-64-127-127-190-190-3-3-7-4-11-6-21-7-43-14-64-21-1 2-1 3-1 5z m180 211c12-12 23-24 34-35 6 6 13 13 18 19-11 11-23 23-35 35-5-7-11-13-17-19z m-152-160c-3-10-7-19-9-28 0-3 6-10 9-9 9 2 18 6 27 8-10 10-18 19-27 29z" horiz-adv-x="1000" />

<glyph glyph-name="pencil" unicode="&#xe80d;" d="M28-150a28 28 0 0 0-26 39l133 336a28 28 0 0 0 6 9l584 585a106 106 0 0 0 150 0l94-94a107 107 0 0 0 0-151l-584-584a28 28 0 0 0-9-7l-337-131a28 28 0 0 0-11-2z m146 320l-95-242 242 95z m32 49l164-165 559 560a50 50 0 0 1 0 71l-94 94a50 50 0 0 1-70 0z m402 210a28 28 0 0 0-20 48l167 168a28 28 0 0 0 40-40l-167-168a28 28 0 0 0-20-8z" horiz-adv-x="1000" />

<glyph glyph-name="company" unicode="&#xe80e;" d="M500-116c-34 0-67 4-99 10-30 5-59 14-84 25-6 2-11 9-11 16h0v124c-66 21-121 52-161 91-43 41-68 90-68 142 0 13 2 25 4 37 1 5 3 10 4 15-27 5-52 13-74 22-6 3-11 10-11 17h1v122c0 32 11 61 30 84 19 23 46 39 77 45 5 1 10-1 14-4 10-8 21-14 32-19 11-4 23-6 35-7h10c12 1 24 3 35 7 12 5 22 11 32 19 4 4 10 5 16 4 30-6 57-23 76-46 10-13 19-28 24-44 16 3 33 5 50 7 22 2 45 3 68 3s46-1 69-3c17-2 33-4 50-7 5 16 13 31 24 44 19 24 46 40 77 46 5 1 10-1 14-4 10-8 21-14 32-19 11-4 23-6 35-7h10c12 0 24 3 35 7 12 5 22 11 32 19 4 4 10 5 16 4 30-6 57-23 76-46 18-22 30-52 30-83v-122c0-8-5-15-13-17-21-10-46-17-72-23 1-4 3-9 4-14 3-12 4-25 4-37 0-53-25-102-68-143-40-38-95-69-161-90v-124c0-8-5-15-13-17-24-11-52-19-82-25-31-6-65-9-98-10h-1v1z m-92 45c29-6 61-9 92-10 31 1 63 4 92 10 24 4 46 10 66 18v110c0 66-25 82-54 82-18 0-39-6-57-10-16-4-29-8-41-8h-6-6c-12 0-25 4-41 8-18 4-39 10-57 10-29 0-54-16-54-82v-110c20-8 42-14 66-18l0 0z m-99 167c10 62 46 78 87 78 22 0 46-5 66-11 14-3 26-6 33-6h10c7 0 19 3 33 6 20 6 43 11 66 11 41 0 77-16 87-78 57 19 105 46 139 79 36 34 57 75 57 117 0 10-1 20-3 29-2 6-3 11-5 16-24-3-48-5-73-5h-1c-33 0-67 4-98 10-31 5-59 14-84 25-7 2-11 9-11 16h0v122c0 1 0 3 0 4-15 3-31 5-47 7-21 2-43 3-65 3-23 0-44-1-65-3-16-2-32-4-48-7 0-1 1-3 1-4v-122c0-8-6-15-13-17-24-11-52-19-82-24-32-6-65-10-99-10h0c-25 0-50 2-73 5-2-5-4-10-5-16-2-9-3-19-3-29 0-42 21-83 56-117 35-33 83-60 140-79l0 0z m-207 281c29-6 61-9 92-10 31 1 63 4 92 10 24 4 46 10 66 18v110c0 23-8 44-22 61-13 15-29 26-48 31-11-8-23-14-35-19-15-6-31-9-47-9h-6-6c-16 0-32 3-47 9-12 5-24 11-34 19-19-5-36-16-49-31-13-17-22-38-22-61v-110c20-8 42-14 66-18l0 0z m91 439c-27 1-52-10-71-28-18-18-30-43-30-71v0c-1-27 10-52 28-71s42-31 69-31h1c27-1 52 10 71 28 18 18 30 43 31 71v0c0 28-11 53-29 72-18 18-43 30-70 30l0 0z m44-55c12-12 19-29 19-46v0c-1-18-8-34-20-46s-28-19-46-19h0c-17 1-33 9-44 21-12 12-19 28-19 45v0c1 18 8 34 20 46 12 12 28 19 45 19 18-1 34-8 45-20l0 0z m477-384c29-6 61-9 92-10 31 1 63 4 92 10 24 4 46 10 66 18v110c0 23-9 44-22 61-13 15-29 26-49 31-10-8-22-14-34-19-15-6-31-9-47-9h-6-6c-16 0-32 3-47 9-12 5-24 11-35 19-19-5-35-16-48-31-13-17-22-38-22-61v-110c20-8 42-14 66-18l0 0z m91 439c-28 1-53-10-71-28-18-18-30-43-31-71v0c0-27 11-52 29-71s42-31 69-31h1c27-1 52 10 71 28 18 18 30 43 30 71v0c1 28-10 53-28 72-18 18-43 30-70 30l0 0z m44-55c12-12 19-29 19-46v0c-1-18-8-34-20-46-12-12-29-19-46-19h0c-17 1-33 9-44 21-12 12-19 28-19 45v0c1 18 8 34 20 46 12 12 28 19 45 19 18-1 34-8 45-20l0 0z m-280-423c-18 18-43 30-70 31-47 0-78-26-92-59-5-13-8-27-8-41 0-13 2-27 7-40 13-34 42-61 89-62h1c27-1 52 10 71 28s30 44 30 71v0c1 28-10 53-28 72z m-7-71c-1-18-8-34-20-46s-28-19-46-18h0c-30 0-49 17-57 38-3 9-4 19-4 28 0 9 2 19 5 27 9 21 28 37 58 37 18 0 34-8 45-20s19-28 19-46v0z" horiz-adv-x="1000" />

<glyph glyph-name="bulk-invitee" unicode="&#xe80f;" d="M480 308c93 50 152 148 152 254 0 159-129 288-288 288s-288-129-288-288c0-106 58-204 152-254-118-47-203-163-203-298v-132c0-15 13-28 29-28 15 0 28 13 28 28v132c0 146 119 265 265 265h34c146 0 265-119 265-265v-132c0-15 12-28 28-28s28 13 28 28c0 0 0 0 0 0v132c0 135-84 251-202 298z m-368 254c0 128 104 231 232 231s231-103 231-231c0-124-99-226-222-231h-18c-123 5-223 106-223 231z m883-616v-48c0-15-13-28-29-28s-28 13-28 28c0 0 0 0 0 0v48c0 123-89 231-213 257-13 2-22 13-23 26 0 13 8 25 20 29 101 32 169 122 169 226 0 103-69 194-167 221-15 5-24 20-20 36 4 15 20 23 35 19 0 0 0 0 0 0 123-34 209-148 209-276 0-103-54-196-140-249 112-52 187-164 187-289z" horiz-adv-x="1000" />

<glyph glyph-name="building" unicode="&#xe811;" d="M967-89h-124v832c0 56-46 102-102 102h-482c-56 0-102-46-102-102v-832h-124c-16 0-28-13-28-28s13-28 28-28h934c16 0 28 12 28 28s-12 28-28 28z m-754 832c0 25 21 46 46 46h482c26 0 46-20 46-46v-832h-138v233c0 44-35 78-78 78h-142c-44 0-78-35-78-78v-233h-138v832z m380-832h-186v233c0 12 10 22 22 22h141c13 0 23-10 23-22v-233h0z m-143 721h-99c-16 0-28 13-28 28s12 28 28 28h99c16 0 28-12 28-28s-12-28-28-28z m199 0h-99c-16 0-28 13-28 28s12 28 28 28h99c16 0 28-12 28-28s-12-28-28-28z m-199-154h-99c-16 0-28 12-28 28 0 15 12 28 28 28h99c16 0 28-13 28-28 0-16-12-28-28-28z m199 0h-99c-16 0-28 12-28 28 0 15 12 28 28 28h99c16 0 28-13 28-28 1-16-12-28-28-28z m-199-155h-99c-16 0-28 13-28 28 0 16 12 28 28 28h99c16 0 28-12 28-28 0-15-12-28-28-28z m199 0h-99c-16 0-28 13-28 28 0 16 12 28 28 28h99c16 0 28-12 28-28 1-15-12-28-28-28z" horiz-adv-x="1000" />

<glyph glyph-name="man-clock" unicode="&#xe812;" d="M484-145h-290c0 0-1 0-1 0-61 2-188 7-188 133 0 95 75 192 183 240-33 37-52 85-52 135 0 110 86 199 195 203 3 0 12 0 14 0 0 0 0 0 0 0 7 0 14-1 20-1 18 157 152 280 314 280 174 0 316-142 316-316 0-174-142-316-316-316-59 0-116 16-166 47-7-11-14-22-24-32 108-48 183-145 183-240 0-126-126-131-187-133-1 0-1 0-1 0z m-290 56h289c112 4 133 30 133 77 0 81-75 165-178 200-12 4-21 14-23 27-2 12 3 25 13 32 36 28 57 71 57 116 0 64-39 117-95 138-5 0-10 2-14 4-10 3-21 5-33 5-1 0-8 0-10 0-79-3-141-68-141-147 0-45 21-88 57-116 10-7 15-20 13-32-2-13-11-23-23-27-103-34-178-119-178-200 0-47 21-73 133-77z m341 402c43-29 92-44 144-44 143 0 260 117 260 260s-117 260-260 260c-136 0-249-106-259-240 72-31 121-102 121-186 0-17-2-34-6-50z m144 188h-79c-16 0-28 13-28 28s12 28 28 28h51l0 125c0 15 13 28 28 28 0 0 0 0 0 0 16 0 28-13 28-28l0-153c0-15-12-28-28-28z" horiz-adv-x="1000" />

<glyph glyph-name="survey" unicode="&#xe813;" d="M213-150c-29 0-48 6-61 20-17 17-19 43-18 66 2 87 2 175 1 261 0 35 0 69 0 104l0 91c0 90 0 183 0 275 1 15 1 60 40 74 17 6 58 8 71 5 15-3 23-21 23-33-2-32-24-34-28-34l-4 1c-2 0-4 0-7 0-10 0-14-3-17-5-11-11-11-42-11-66 0-48 0-96 1-143 0-169 0-343-2-514 0-15 2-25 7-30 4-4 13-6 28-6l523 0c15 0 25 2 29 7 4 4 7 14 7 30-2 234-1 468-1 685 0 14 0 34-5 40-3 3-9 3-14 3-2 0-5 0-7 0-4-1-7-1-10-1-11 0-30 5-33 35-1 12 3 20 7 24 9 11 24 13 34 14 13 1 23 2 31 2 68 0 68-38 68-105v-2c0-64 0-128 0-192-1-171-1-348 1-522 0-31-5-51-19-64-17-17-41-19-63-19l-571-1z m271 733c-41 0-94 0-116 1-51 2-81 31-84 81-5 58 24 96 77 101 28 4 35 8 40 29 11 37 42 56 92 56 30 0 81 0 99-51 9-25 18-32 43-34 50-4 83-44 80-96s-37-86-89-86c-25-1-86-1-142-1z m-115 115c-5-1-8-3-11-6-4-4-6-11-6-19 0-6 1-21 28-22 110-2 111-2 227-1 33 1 35 11 35 24 0 12-3 26-29 26-1 0-3 0-4 0-64-5-75 36-78 66-2 13-18 16-31 16h-2c-31-1-32-10-33-16-6-63-51-67-77-67-2 0-8 0-8 0s-8 0-11-1z m328-262h-69v-362h69v362z m-113-215h-69v-147h69v147z m-212-37h-70v-110h70v110z m104 148h-69v-258h69v258z" horiz-adv-x="1000" />

<glyph glyph-name="info-squared" unicode="&#xe815;" d="M893 845h-786c-56 0-102-46-102-102v-786c0-56 46-102 102-102h786c56 0 102 46 102 102v786c0 56-46 102-102 102z m46-888c0-25-20-46-46-46h-786c-25 0-46 21-46 46v786c0 25 21 46 46 46h786c25 0 46-20 46-46v-786z m-411 473v-258c0-16-12-28-28-28s-28 12-28 28v258c0 15 13 28 28 28s28-13 28-28z m0 98v-9c0-16-12-28-28-28s-28 12-28 28v9c0 16 13 28 28 28s28-12 28-28z" horiz-adv-x="1000" />

<glyph glyph-name="location-1" unicode="&#xe816;" d="M501-152c-48 63-94 120-137 180-74 104-141 212-183 334-41 117-37 230 34 335 82 120 227 175 368 142 136-33 242-149 262-290 9-70-5-138-30-204-48-129-122-244-203-354-35-47-72-92-111-143z m147 653c0 82-66 148-147 148-81 0-146-66-146-147 0-82 65-148 146-148 81 0 147 66 147 147z" horiz-adv-x="1000" />

<glyph glyph-name="settings-1" unicode="&#xe818;" d="M500 147c-112 0-203 91-203 203s91 203 203 203 203-91 203-203-91-203-203-203z m0 350c-81 0-147-66-147-147s66-147 147-147 147 66 147 147-66 147-147 147z m104-642h-208c-36 0-66 27-71 63l-9 69c-13 6-26 14-39 22l-76-32c-26-11-57 0-71 25l-117 202c-15 25-8 57 15 74l65 49c-1 8-1 16-1 22 0 8 0 15 1 23l-65 49c-23 17-30 49-15 74l117 204c14 25 45 35 71 24l76-32c13 8 26 16 39 23l9 68c5 36 35 63 71 63h208c36 0 67-27 71-63l9-68c13-7 27-15 39-23l76 32c27 11 57 1 71-24l117-203c15-25 9-56-14-74l-66-49c1-8 1-16 1-22 0-8 0-15-1-23l66-49c23-17 29-49 14-74l-117-204c-14-25-45-35-71-24l-76 32c-12-8-26-16-39-23l-9-68c-4-36-35-63-71-63z m-326 212c9 0 17-2 25-7 14-10 29-19 45-26 13-6 21-18 23-33l10-76c1-8 7-13 15-13h208c8 0 14 6 16 13l9 76c2 15 11 27 24 33 15 8 30 17 44 26 12 8 28 10 41 4l82-35c1 0 1 0 1 1l117 202c0 1 0 2 0 2l-78 58c-8 6-12 16-11 26 1 11 2 22 2 33 0 8-1 16-2 25-1 15 5 29 17 37l71 55c1 0 1 1 0 1l-117 202c0 1-1 1-2 1l-80-36c-13-5-29-4-40 5-15 10-30 18-45 25-13 6-22 19-24 33l-9 76c-1 8-8 14-16 14h-208c-8 0-14-7-15-14l-10-76c-2-14-10-27-23-33-16-7-31-16-45-25-12-9-28-10-41-5l-82 35c-1 0-1 0-1-1l-118-202c0 0 0-1 1-1l71-54c12-9 18-23 17-37-1-9-2-18-2-26s1-16 2-25c1-15-5-29-17-38l-71-54c-1 0-1-1 0-1l117-202c0-1 1-1 2-1l82 35c4 2 10 3 15 3z m-184 253l0 0 0 0z m0 60l0 0 0 0z m177 307l0 0 0 0z m52 30l0 0 0 0z m354 0l0 0 0 0z" horiz-adv-x="1000" />

<glyph glyph-name="group" unicode="&#xe819;" d="M860 61a28 28 0 0 0-27 24 29 29 0 0 0 23 33c73 12 88 41 88 84 0 96-92 196-215 232a29 29 0 0 0-20 23c-2 11 3 21 12 28a169 169 0 0 1-94 308c-51 0-99-23-132-63-10-12-28-15-40-4s-14 27-4 39c43 54 107 85 176 85 124 0 225-101 225-225a224 224 0 0 0-60-154c123-52 208-160 208-269 0-117-102-134-135-140a9 9 0 0 0-5-1z m-306-211c69 2 214 7 214 150 0 112-88 223-216 278a232 232 0 0 1 63 159c0 126-98 227-223 231h-17a232 232 0 0 1-159-390c-128-55-216-166-216-278 0-143 145-148 215-150h339z m-497 150c0 100 96 203 223 241a29 29 0 0 1 20 22c2 11-3 22-12 28-48 33-78 87-78 145 0 95 74 171 167 175h13c95-3 169-80 169-175a174 174 0 0 0-78-145c-9-6-14-17-12-28a29 29 0 0 1 20-22c127-38 222-141 222-241 0-57-25-89-159-93h-336c-134 5-159 36-159 93z" horiz-adv-x="1000" />

<glyph glyph-name="user" unicode="&#xe81a;" d="M500 347c-139 0-252 112-252 251s113 252 252 252 252-113 252-252-113-251-252-251z m0 446c-107 0-195-87-195-195s88-194 195-194 195 87 195 194-87 195-195 195z m500-915v183c0 119-97 215-216 215h-568c-119 0-216-96-216-215v-183a28 28 0 0 1 57 0v183c0 88 71 159 159 159h568c88 0 159-72 159-159v-183a28 28 0 0 1 57 0z" horiz-adv-x="1000" />

<glyph glyph-name="phone-2" unicode="&#xe81b;" d="M0 615q0 50 28 76l138 138q45 37 77-13l113-211q18-39-14-71l-51-52q-5-6-5-14 25-98 132-195l31-30t36-34 34-26 41-25 40-14q20-6 27 2l61 60q39 30 72 12l203-121q22-14 25-37t-13-39l-141-139q-27-27-74-27-140 4-318 121-258 185-375 406-72 151-67 233z" horiz-adv-x="988" />

<glyph glyph-name="at" unicode="&#xe81c;" d="M770 548c16-41 25-87 25-138 0-68-17-133-46-182-39-61-94-92-163-92-27 0-52 7-70 21-12 9-23 21-30 36-26-33-68-55-113-55-52 0-95 19-123 58-27 35-41 84-41 141s16 110 49 148c33 41 82 63 141 63 35 0 67-15 90-37l7 26 85 0-17-259c-1-21 1-36 9-43 3-5 10-8 20-8 76 0 102 123 102 183 0 72-24 132-67 176-50 51-122 76-209 76-84 0-158-26-214-76-65-59-101-143-101-245 0-86 31-165 85-221 52-53 122-82 205-82 95 0 167 14 241 47l15 7 0-96-6-3c-69-34-150-50-251-50-108 0-200 33-269 97-81 73-124 183-124 308 0 119 40 220 116 294 38 36 83 65 133 84 52 21 109 31 169 31 113 0 215-37 283-106 30-29 54-64 69-103z m-384-317c30 0 54 14 69 40 14 25 18 61 18 85 0 31-7 56-17 74-13 20-33 28-60 28-28 0-50-12-63-38-13-22-19-53-19-83 0-32 7-106 72-106z" horiz-adv-x="795" />

<glyph glyph-name="clock" unicode="&#xe81d;" d="M460 810q190 0 325-135t135-325-135-325-325-135-325 135-135 325 135 325 325 135z m0-820q150 0 255 106t105 254q0 150-105 255t-255 105q-148 0-254-105t-106-255q0-148 106-254t254-106z m36 620l0-244 150-150-50-50-170 170 0 274 70 0z" horiz-adv-x="920" />

<glyph glyph-name="plus-1" unicode="&#xe820;" d="M911 462l0-223-335 0 0-336-223 0 0 336-335 0 0 223 335 0 0 335 223 0 0-335 335 0z" horiz-adv-x="928" />

<glyph glyph-name="visitor" unicode="&#xe821;" d="M897 751h-794c-54 0-98-44-98-98v-606c0-54 44-98 98-98h794c54 0 98 44 98 98v606c0 54-44 98-98 98z m42-704c0-23-19-42-42-42h-794c-23 0-42 19-42 42v606c0 23 19 42 42 42h794c23 0 42-19 42-42v-606z m-556 307c14 17 24 40 24 65 0 55-45 100-101 100 0 0 0 0 0 0-56 0-101-45-101-100 0-24 8-47 24-65-52-28-87-82-87-145 0-15 13-28 28-28s28 13 28 28c0 0 0 0 0 0 0 60 49 108 109 108 59 0 108-48 108-108 0-15 12-28 28-28 15 0 28 13 28 28-1 61-35 116-88 145z m-123 64c0 25 20 45 45 45s45-20 45-45-20-45-45-45c-25 0-45 20-45 45 0 0 0 0 0 0l0 0z m599-6c0-15-13-28-28-28 0 0 0 0 0 0h-266c-16 0-28 13-28 28 0 16 12 28 28 28 0 0 0 0 0 0h266c15 0 28-12 28-27 0-1 0-1 0-1l0 0z m0-124c0-16-13-28-28-28 0 0 0 0 0 0h-266c-16 0-28 12-28 28 0 15 12 28 28 28h266c15 0 28-13 28-28 0 0 0 0 0 0l0 0z" horiz-adv-x="1000" />

<glyph glyph-name="stopwatch" unicode="&#xe822;" d="M500 723c231 1 437-184 436-438 0-257-210-434-434-435-228-2-439 178-439 436 0 259 211 439 437 437z m-367-436c0-203 164-367 367-367 198-1 363 164 366 359 3 206-163 374-366 374-202 1-366-164-367-366z m349 561c0-25 0-49 0-74-21-4-44-7-56 14-6 11-7 30-2 42 10 25 35 20 58 18z m35 0c23 2 46 6 57-17 6-11 6-30 0-41-11-23-34-19-57-17 0 25 0 49 0 75z m-64-115c0 7 0 13 0 21 31 0 61 0 94 0 0-7 0-14 1-21-33 0-64 0-95 0z m49-120c113 5 239-66 296-190 56-120 28-272-53-352-46 40-91 80-137 120-32 29-65 58-97 87-5 5-11 14-11 21 0 102 0 204 0 307 0 2 1 5 2 7z" horiz-adv-x="1000" />

<glyph glyph-name="iot" unicode="&#xe823;" d="M507 532c85 0 154-70 155-156 0-85-70-157-155-157-84-1-154 70-155 156 0 86 69 157 155 157z m-203-201c-41-14-80-27-119-41-13-5-22-4-32 8-28 31-75 35-110 14-36-22-52-68-38-109 14-39 52-64 93-60 43 5 77 36 80 79 2 15 8 20 21 25 40 12 79 27 120 41-5 15-10 28-15 43z m228-171c7-29 12-57 20-86 3-13 1-20-10-28-35-28-44-74-25-112 19-38 60-57 100-48 41 9 70 46 70 89 0 43-27 79-70 88-15 3-19 10-22 23-6 30-13 60-20 91-15-4-28-7-42-10 0-4-1-6-1-7z m263 164c18-1 27-7 34-25 14-40 55-60 97-54 39 6 70 41 74 81 3 45-21 83-63 96-39 13-81-2-101-38-9-16-18-17-33-15-29 3-58 6-88 9-2-16-3-30-5-46 30-3 58-7 85-8z m-120 293c8 16 17 22 36 21 42-4 78 25 89 65 11 38-7 82-43 101-39 22-84 15-113-17-28-30-32-74-7-108 11-14 8-23 0-36-15-25-29-50-45-77 14-8 26-15 40-23 15 26 30 50 43 74z m-349-36c-9 8-13 15-8 28 15 42-2 86-39 108-37 21-82 14-110-16-30-32-33-80-9-115 24-36 67-49 107-32 13 5 19 2 28-6 15-16 31-30 47-46 11 12 20 22 31 34-16 16-31 30-47 45z" horiz-adv-x="1000" />

<glyph glyph-name="mapped_list" unicode="&#xe826;" d="M898-45c-44 0-81 29-94 69h-49c-51 0-92 41-92 92v144c0 0 0 0 0 0 0 14-3 45-15 58-3 3-6 4-11 4h-44c-12-40-49-69-93-69-44 0-81 29-93 69h-44c-5 0-8-1-11-4-12-13-15-44-15-58 0 0 0 0 0 0v-144c0-51-41-92-92-92h-49c-12-40-50-69-94-69-53 0-97 43-97 97s44 97 97 97c44 0 82-29 94-69h49c20 0 36 16 36 36v143c0 6 0 35 10 63h-75c-12-40-50-69-94-69-53 0-97 43-97 97 0 54 44 97 97 97 44 0 82-29 94-69h75c-10 28-10 57-10 63v144c0 19-16 35-36 35h-49c-12-40-50-69-94-69-53 0-97 43-97 97s44 97 97 97c44 0 82-29 94-69h49c51 0 92-41 92-91v-144c0-1 0-1 0-1 0-14 3-45 15-57 3-4 6-5 11-5h44c12 40 49 69 93 69 44 0 81-29 93-69h44c5 0 8 1 11 5 12 12 15 43 15 57 0 0 0 0 0 1v144c0 50 41 91 92 91h50c12 40 49 69 93 69 53 0 97-43 97-97s-44-97-97-97c-44 0-81 29-93 69h-50c-20 0-36-16-36-35v-144c0-6 0-35-10-63h76c12 40 49 69 93 69 53 0 97-43 97-97 0-54-44-97-97-97-44 0-81 29-93 69h-76c10-28 10-57 10-63v-143c0-20 16-36 36-36h50c12 40 49 69 93 69 53 0 97-43 97-97s-44-97-97-97z m0 138c-23 0-42-18-42-41s19-41 42-41 41 18 41 41-19 41-41 41z m-796 0c-22 0-41-18-41-41s19-41 41-41 42 18 42 41-19 41-42 41z m734 256c1-22 19-40 42-40 22 0 41 18 41 41 0 23-19 41-41 41-23 0-41-18-42-40 0-1 0-1 0-1 0 0 0 0 0-1z m-336 42c-23 0-41-18-41-41 0-23 18-41 41-41s41 18 41 41c0 23-18 41-41 41z m-378 0c-22 0-41-18-41-41 0-23 19-41 41-41 23 0 41 18 42 40 0 1 0 1 0 1s0 1 0 1c-1 22-19 40-42 40z m776 298c-23 0-42-18-42-41 0-23 19-41 42-41s41 18 41 41c0 23-19 41-41 41z m-796 0c-22 0-41-18-41-41 0-23 19-41 41-41s42 18 42 41c0 23-19 41-42 41z" horiz-adv-x="1000" />

<glyph glyph-name="headcount" unicode="&#xe82d;" d="M453-145c-274 0-410 210-434 252 0 1-1 1-1 1-17 35-17 73 0 104 12 21 31 35 51 37 5 2 12 3 20 5 21 6 46 12 58 16 10 3 19 6 28 9 29 9 50 16 73 27 30 15 63 49 66 61 5 16-2 40-4 48-1 2-1 3-1 4 0 0 0 0 0 1-4 16-17 28-23 34-2 2-3 3-4 4-11 13-28 32-29 60 0 1-1 3-1 6-3 44-8 106-3 141 2 22 7 47 24 70 8 11 16 22 24 32l3 3c25 33 75 72 169 75 55 1 100-15 135-48 47-44 58-106 58-126l0-1c1-36 3-50 4-55 4-6 7-16 3-55-2-28-8-50-15-64-8-15-16-31-22-46-3-9-7-43 0-66 6-23 27-46 50-58 2-1 5-2 9-3 29-8 91-26 142-49 14-6 20-23 14-37-7-14-23-20-38-14-47 21-105 38-134 47-5 1-9 2-11 3-2 0-3 1-4 1-39 19-72 56-82 95-11 37-4 83 1 99 7 20 16 38 25 54 8 14 11 55 11 69-6 14-8 35-9 78l0 1c0 9-8 55-41 87-23 22-55 33-95 32-71-2-108-30-126-53l-3-4c-8-10-16-20-23-30-9-12-12-28-14-44-3-22-1-65 4-129 0-4 0-7 0-8 1-7 5-14 16-25 0-1 0-1 1-2 9-8 30-29 38-61l0-1c4-14 15-49 5-82-11-35-63-77-95-94-27-13-51-21-82-30-8-3-17-6-26-9-14-5-41-11-62-17-9-2-17-4-22-5-2-1-4-1-6-1 0 0-6-3-10-12-3-7-9-25 3-47 23-39 143-224 385-224 1 0 2 0 3 0 78 0 150 15 211 43 14 6 31 0 37-14 7-14 1-31-13-37-69-31-148-48-235-48-1 0-2 0-3 0z m162 740l0 0 0 0z m185-647c-9 0-17 5-23 12 0 1-24 36-52 56-27 21-60 29-60 29-15 3-24 18-21 34 4 15 19 24 34 20 2 0 44-10 81-38 13-9 25-21 35-32 15 30 37 72 63 109 40 59 90 100 93 102 12 9 29 8 39-4 10-12 8-30-4-40-1 0-46-37-82-90-42-61-76-140-77-141-4-9-13-16-23-17-1 0-2 0-3 0z m-398 8c-3 0-5 1-8 1-15 5-23 20-19 33l34 103-14 16c-10 11-8 28 4 37 12 9 30 8 40-4l23-27c6-7 8-16 5-25l-38-115c-4-12-15-19-27-19z m160 2c-12 0-23 7-27 18l-38 114c-3 9-1 18 5 25l24 27c9 12 27 13 39 4 12-9 14-26 4-37l-14-16 33-101c5-14-3-29-18-33-3-1-6-1-8-1z m-164 216c-8 0-15 3-21 9-10 11-10 29 1 40l27 25c-6 7-13 14-20 20l-8 8c-11 11-11 29 0 40 11 11 28 11 39 0l8-8c12-11 24-23 36-35 15-15 15-35 1-49-1-1-1-1-1-1l-43-41c-5-5-12-8-19-8z m157 0c-6 0-13 3-19 8l-43 41c0 0 0 0 0 1-15 14-15 34 0 49 12 12 24 24 36 35l8 8c11 11 28 11 39 0 11-11 11-29 0-40l-8-8c-7-6-14-13-20-20l27-26c11-10 12-28 1-39-6-6-13-9-21-9z" horiz-adv-x="1000" />

<glyph glyph-name="cg" unicode="&#xe831;" d="M313 426v149h374v-149h-44v105h-286v-105h-44z m374-46h-374v-45h374v45z m-44-91v-99h-286v99h-44v-143h374v143h-44z m-143 561c-276 0-500-224-500-500 0-276 224-500 500-500s500 224 500 500c0 276-224 500-500 500z m0-956c-252 0-456 204-456 456 0 252 204 456 456 456s456-204 456-456c0-252-204-456-456-456z" horiz-adv-x="1000" />

<glyph glyph-name="zone" unicode="&#xe832;" d="M982 190l-457 171a28 28 0 0 1-36-36l171-457a28 28 0 0 1 26-18h2a28 28 0 0 1 26 21l54 211 211 54a28 28 0 0 1 3 54z m-244-57a28 28 0 0 1-21-21l-36-140-117 315 314-118z m-194-136a28 28 0 0 0-28-28h-63a28 28 0 0 0 0 57h63a28 28 0 0 0 28-29z m-200 0a28 28 0 0 0-28-28h-138a28 28 0 1 0 0 57h138a28 28 0 0 0 28-29z m-266 65a28 28 0 0 0-44-35 154 154 0 0 0-34 96v52a28 28 0 0 0 57 0v-52a96 96 0 0 1 21-61z m746 615a28 28 0 1 0 57 0v-137a28 28 0 0 0-57 0z m-824-90v109a150 150 0 0 0 4 34 28 28 0 1 0 55-13 101 101 0 0 1-2-21v-109a28 28 0 1 0-57 0z m642 235a28 28 0 0 0 28 28h57a153 153 0 0 0 91-30 28 28 0 0 0-16-51 28 28 0 0 0-17 5 96 96 0 0 1-58 19h-57a28 28 0 0 0-28 29z m-642-509v137a28 28 0 0 0 57 0v-137a28 28 0 0 0-57 0z m533 480h-137a28 28 0 0 0 0 57h137a28 28 0 0 0 0-57z m-379 0a98 98 0 0 1-25-3 30 30 0 0 0-7-1 28 28 0 0 0-8 56 157 157 0 0 0 40 5h104a28 28 0 0 0 0-57z m727-391v-63a28 28 0 1 0-57 0v63a28 28 0 1 0 57 0z" horiz-adv-x="1000" />

<glyph glyph-name="cross" unicode="&#xe833;" d="M540 350l452 452a28 28 0 1 1-40 40l-452-452-452 452a28 28 0 0 1-40-40l452-452-452-452a28 28 0 0 1 0-40 28 28 0 0 1 40 0l452 452 452-452a28 28 0 0 1 40 0 28 28 0 0 1 0 40z" horiz-adv-x="1000" />

<glyph glyph-name="matrix" unicode="&#xe834;" d="M499-150c-137 0-273 0-409 0-55 0-90 35-90 89 0 274 0 548 0 821 0 56 35 90 90 90 273 0 547 0 820 0 55 0 90-35 90-90 0-274 0-548 0-822 0-53-35-88-88-88-138 0-276 0-413 0z m-291 916c0 25-17 42-42 43-28 0-55 0-82 0-24-1-42-18-42-42-1-28-1-55 0-83 0-24 17-42 42-42 27 0 55-1 83 0 24 0 41 18 41 42 1 14 1 68 0 82z m251 1c-1 24-18 41-43 42-27 0-55 0-83 0-23-1-41-18-41-41-1-29-1-57 0-85 0-23 18-41 41-41 28-1 56 0 83 0 25 0 42 18 43 42 0 13 0 69 0 83z m458-125c24 0 41 18 42 42 0 28 0 55 0 83-1 23-18 41-41 42-29 0-57 0-85 0-23-1-41-18-41-42-1-28-1-55 0-83 0-24 18-42 42-42 13-1 69-1 83 0z m-626-207c1-26 18-43 44-43 27-1 54-1 81 0 25 0 42 17 43 42 0 27 0 55 0 82-1 25-18 42-43 42-28 1-55 1-82 0-24 0-42-17-42-41-1-14-1-68-1-82z m418 81c-1 25-18 42-42 43-28 0-57 0-85 0-22-1-40-19-40-41-1-28-1-57 0-85 0-24 18-41 42-41 27-1 55-1 82 0 25 0 42 17 43 42 0 14 0 68 0 82z m-544-375c26 1 43 18 43 44 1 27 1 54 0 80 0 26-17 43-43 43-27 1-54 1-81 0-25 0-42-17-43-42 0-27 0-55 0-82 1-25 18-42 43-42 14-1 68-1 81-1z m211 168c-14 0-28 0-42 0-25-1-42-18-43-43 0-28 0-55 0-82 1-24 18-42 42-42 28-1 56-1 83 0 25 0 42 17 42 42 1 27 1 55 0 83 0 23-17 41-41 42-13 0-27 0-41 0z m583-44c-1 26-18 43-44 44-27 0-53 0-80 0-25-1-43-18-43-43-1-27-1-54 0-82 0-25 17-42 42-42 28-1 55-1 82 0 25 0 42 17 43 43 0 13 0 67 0 80z m-333-207c-14 0-28 1-42 0-25 0-42-17-42-42-1-28-1-55 0-82 0-25 17-42 43-43 27 0 54 0 81 0 25 1 42 18 43 42 0 28 0 56 0 84-1 24-18 41-43 41-13 1-27 0-40 0z m248-167c14 0 29 0 43 0 24 1 41 18 42 42 0 28 0 56 0 84-1 24-18 41-42 41-28 1-56 1-84 0-23 0-41-17-41-40-1-29-1-57 0-86 0-23 18-40 41-41 13 0 27 0 41 0z" horiz-adv-x="1000" />

<glyph glyph-name="unlink" unicode="&#xe836;" d="M193 543h114 31 12c4 0 8-4 8-9v-101c0-5-4-8-8-8h-12-31-114c-21 0-39-9-53-22-14-14-22-33-22-53 0-20 8-39 22-53 13-13 32-21 53-21h114 31 12c4 0 8-4 8-9v-101c0-5-4-8-8-8h-12-31-114c-53 0-102 21-136 56-35 35-57 83-57 136s22 101 57 136c34 35 83 57 136 57l0 0z m468 0h-10c-5 0-9-4-9-9v-101c0-5 4-8 9-8h10 32 115c20 0 39-9 52-22 14-14 22-33 22-53 0-20-8-39-22-53-13-13-32-21-52-21h-115-32-10c-5 0-9-4-9-9v-101c0-5 4-8 9-8h10 32 115c53 0 101 21 136 56 34 35 56 83 56 136 0 53-22 101-56 136-35 35-83 57-136 57h-115-32z m-152 195l-78-268c-2-7-2-7 1-14l2-8 66-181 1-3c1-2-1-5-2-7l-139-297c-2-5-2-6-1-6 2-1 3 1 6 4 13 16 70 86 76 93l162 201c7 9 6 13 4 17l-68 191c-2 5-3 4-1 9l103 269c2 5-1 8-5 8h-116c-5 0-10-3-11-8z" horiz-adv-x="1000" />

<glyph glyph-name="flash" unicode="&#xe837;" d="M494 534q10-11 4-24l-302-646q-7-14-23-14-2 0-8 1-9 3-14 11t-3 16l110 451-226-56q-2-1-7-1-10 0-17 7-10 8-7 21l112 461q2 8 9 13t15 5h183q11 0 18-7t7-17q0-4-2-10l-96-258 221 54q5 2 7 2 11 0 19-9z" horiz-adv-x="500" />

<glyph glyph-name="division" unicode="&#xe838;" d="M187 617v-333c0 0 26 31 59 59 29 25 66 49 66 49v225c37 22 63 62 63 109 0 69-56 125-125 125s-125-56-125-125c0-47 25-87 62-109z m63 171c35 0 63-28 63-62s-28-63-63-63c-34 0-62 28-62 63s28 62 62 62z m625-62c0 69-56 125-125 125s-125-56-125-125c0-46 24-86 61-108 1-20 6-57-30-96-49-53-153-100-265-158-85-43-149-100-178-156-32-61-26-117-26-124-37-22-62-62-62-109 0-69 56-125 125-125s125 56 125 125c0 47-25 88-63 109-1 18 1 60 28 91 39 44 107 79 189 121 24 12 108 54 141 76 46 31 100 85 119 125 26 53 23 105 22 119 38 22 64 63 64 110z m-562-751c0-34-28-62-63-62-34 0-62 28-62 62s28 63 62 63c35 0 63-28 63-63z m437 688c-34 0-62 28-62 63s28 62 62 62c35 0 63-28 63-62s-28-63-63-63z" horiz-adv-x="1000" />

<glyph glyph-name="agreement" unicode="&#xe839;" d="M991 372c-8 14-26 19-41 11l-40-24-135 234 42 24c14 8 19 27 11 41-9 14-26 18-40 10l-48-27c-7-4-13-10-18-16-1-1-2-1-3-2-25-14-70-30-87-24-12 4-26 9-40 15-31 12-61 24-84 25-3 0-6 0-8-1-11-1-29-7-54-24-13-9-39-25-61-38-11 3-28 7-55 11-15 2-30 7-43 13-1 3-1 6-2 8-4 14-13 26-25 33l-48 27c-14 8-32 3-40-11-8-14-3-32 11-40l42-25-135-233-40 24c-15 8-33 3-41-11s-4-32 11-41c0 0 0 0 0 0l46-26c8-5 17-7 27-7 15 0 29 6 40 18 12-14 27-32 44-52 93-109 162-137 223-162 26-10 48-19 71-35 24-16 44-21 60-21 23 0 37 11 44 18 4 4 12 13 18 25 22 0 42 10 56 28 3 4 6 9 8 15 6-2 13-4 20-4 22 0 42 10 55 28l3 3c7 10 11 21 13 33 20 4 37 17 48 33 9 15 13 32 11 48 20 7 44 19 64 40 10-10 23-15 37-15 10 0 19 2 27 7l46 26c13 9 18 27 10 41z m-304-177l-3-3c-3-4-9-5-13-2l0 0-38 26-49 37c-13 10-32 8-42-5-9-14-7-32 6-42l0 0 50-38c3-1 4-4 5-7 0-3-1-6-2-8-4-5-11-6-16-2l-47 35c-13 10-32 8-42-6-10-13-7-31 6-41l35-27c-1-2-3-5-5-7 0 0-8-1-28 12-28 18-56 29-83 40-57 23-116 47-199 146-23 27-45 52-58 66l102 175c18-8 36-13 56-16 0 0 0 0 1 0l-62-82c-9-11-12-26-9-40 4-16 18-52 80-52 60 0 109 60 129 88l40 12 239-179c1-1 3-1 4-2 1-1 2-2 3-3 1-1 2-7-2-13-5-7-11-9-21-5-1 1-2 2-3 3l-83 62c-13 10-32 7-42-6-10-13-7-32 6-42 0 0 0 0 0 0l83-62c2-1 3-3 4-6 0-2-1-4-2-6z m85 130l-239 179c-13 10-30 13-45 8l-47-14c-11-3-21-10-27-20-21-29-54-64-82-64-9 0-15 1-19 3l65 86c20 11 78 45 102 62 16 11 25 14 28 14 13-1 40-12 62-20 15-6 30-12 43-17 36-12 84 5 112 18l112-192c-16-28-48-39-65-43l0 0z m-407-279c-5-11-16-18-28-18-4 0-8 1-11 2-55 23-120 56-204 155-11 12-9 31 3 42 13 10 31 9 42-3 0-1 0-1 0-1 76-89 131-117 182-138 15-6 22-24 16-39z" horiz-adv-x="1000" />

<glyph glyph-name="plus" unicode="&#xe83c;" d="M550 400q30 0 30-50t-30-50l-210 0 0-210q0-30-50-30t-50 30l0 210-210 0q-30 0-30 50t30 50l210 0 0 210q0 30 50 30t50-30l0-210 210 0z" horiz-adv-x="580" />

<glyph glyph-name="down-dir" unicode="&#xe83d;" d="M571 457q0-14-10-25l-250-250q-11-11-25-11t-25 11l-250 250q-11 11-11 25t11 25 25 11h500q14 0 25-11t10-25z" horiz-adv-x="571.4" />

<glyph glyph-name="mobile" unicode="&#xe843;" d="M739-145h-478c-50 0-92 41-92 92v806c0 51 42 92 92 92h478c51 0 92-41 92-92v-806c0-51-42-92-92-92z m-478 934c-20 0-36-16-36-36v-806c0-20 16-36 36-36h478c20 0 36 16 36 36v806c0 20-16 36-36 36h-478z m432-110c0 15-12 28-28 28h-330c-16 0-28-13-28-28s12-28 28-28h330c16 0 28 12 28 28z m-193-627c-17 0-32-14-32-32 0-17 15-32 32-32 17 0 32 15 32 32 0 17-15 32-32 32z" horiz-adv-x="1000" />

<glyph glyph-name="plam" unicode="&#xe844;" d="M288 395c0 78 0 156 0 234 0 36-1 71 0 107 0 33 21 55 51 55 30 0 49-23 50-56 0-104 0-207 0-311 0-10 0-20 0-30 9 0 15 0 24 0 0 7 0 14 0 21 0 128 0 256 0 384 0 25 14 43 35 49 23 6 47-2 57-21 6-10 8-23 8-35 0-122 0-244 0-367 0-10 0-20 0-31 11 0 20 0 31 0 0 8 0 16 0 24 0 94 0 188 0 282 0 21 9 36 28 45 19 9 38 7 55-6 16-12 18-28 18-46 0-146 0-291 0-437 0-7 0-15 0-27 7 6 11 9 15 13 25 27 51 55 77 82 22 24 52 28 75 10 24-19 28-40 10-70-57-98-114-197-172-294-46-77-118-114-205-119-38-3-77-1-114 4-90 14-145 71-155 162-7 64-9 129-9 193-1 144-1 288 0 432 0 42 38 66 74 48 21-10 27-28 27-50 0-76 0-152 0-228 0-11-1-24 20-17z" horiz-adv-x="1000" />

<glyph glyph-name="rfid" unicode="&#xe845;" d="M907 267c-5 0-10 1-15 4-13 8-17 25-10 39 37 63 57 134 57 207 0 72-19 143-56 206-8 13-3 30 10 38 13 8 30 3 38-10 42-71 64-152 64-234 0-83-22-164-64-236-6-9-15-14-24-14z m-814 0c-10 0-19 5-24 14-42 71-64 153-64 235 0 82 22 163 64 235 8 13 25 18 39 10 13-8 18-25 10-39-37-63-57-134-57-207 0-72 20-143 56-206 8-13 4-30-10-38-4-3-9-4-14-4z m711 48c-5 0-10 1-15 4-13 8-17 25-9 39 29 48 45 102 45 158 0 55-16 110-45 158-8 13-4 31 9 39 13 8 31 4 39-10 34-56 53-121 53-187 0-66-19-131-53-188-5-8-15-13-24-13z m-608 0c-9 0-18 5-24 13-34 57-53 122-53 188 0 66 19 131 53 188 8 13 26 17 39 9 13-8 17-25 9-39-29-48-45-102-45-158 0-55 16-110 45-158 8-13 4-31-9-39-5-3-10-4-15-4z m606-40c-3 5-6 10-9 15-41 58-65 90-79 109 1 2 1 3 1 4v226c0 17-14 30-31 30h-368c-17 0-31-13-31-30v-226c0-17 14-30 31-30h92v-410c0-15 12-28 28-28h216c15 0 28 13 28 28v62l113 162c3 4 6 9 9 14 10 24 10 50 0 74z m-52-51c0-2-2-3-3-5l-118-169c-3-5-5-11-5-17v-42h-160v485c0 9 4 19 11 25 7 7 16 11 26 11 19-1 35-17 35-36v-185c0-6 2-11 5-16l30-42c8-13 26-16 39-7 12 9 15 26 6 39l-24 35v72h73c15-20 44-62 82-115 2-2 3-4 4-5 3-9 3-19-1-28z" horiz-adv-x="1000" />

<glyph glyph-name="face" unicode="&#xe846;" d="M375-150c-44 0-103 4-147 9-22 2-37 10-47 24-9 13-12 30-9 51 6 32 0 61-19 86-18 23-33 47-47 70-16 27-32 53-51 76-53 65-54 151-55 215 0 15 8 39 28 45 9 3 9 3 9 25 0 4-1 9-1 14v4c1 43 1 87 11 132 37 156 161 249 333 249h1c171 0 295-93 332-249 10-45 10-89 11-132v-4a102 102 0 0 0-1-14c-1-22 0-22 8-25h0c21-6 29-30 29-45-1-64-3-150-55-215-19-23-35-49-51-76-15-23-30-48-47-70-19-25-26-54-20-86 4-21 2-38-8-51s-25-22-47-24c-51-7-112-9-152-9z m-147 67a17 17 0 0 1 7-2c44-5 103-8 145-8 38 0 97 3 145 8a56 56 0 0 0 7 2 43 43 0 0 1-1 7c-8 47 2 93 31 130 15 21 29 43 43 66 17 28 34 56 56 83 31 38 39 89 42 146 0 14-5 29-16 39-22 21-21 50-20 66 0 4 0 8 0 11v5c-1 41-1 81-10 119-31 129-134 206-277 206h-1c-143 0-247-78-277-206-9-38-9-78-10-119v-16c1-16 2-45-20-66a51 51 0 0 1-16-39c3-57 10-108 42-146 21-27 39-55 56-83 14-23 27-45 43-66 29-37 39-82 30-130a43 43 0 0 0 1-7z" horiz-adv-x="760" />

<glyph glyph-name="emergency" unicode="&#xe849;" d="M500-49c-208 0-376 169-376 377s168 376 376 376c208 0 377-169 377-376s-169-377-377-377z m0 721c-190 0-344-155-344-344s154-345 344-345 344 155 344 345-154 344-344 344l0 0z m156-437c10 137 3 258-107 285-6 1-9 6-10 11-7 67-71 67-78 0-1-5-4-10-9-11-109-27-118-145-108-278 0-4-1-8-4-11-21-17-35-35-46-54-1-2-2-4-2-6v-4c0-7 6-13 13-13h390c7 0 13 6 13 13v4c0 2-1 4-2 6-12 20-28 40-50 58l0 0z m-208-109c0-29 24-52 52-52 28 0 51 23 51 52h-103z m-411 297c24 116 91 218 188 288 7 5 9 16 3 23-5 7-15 9-22 3-104-74-175-184-201-308-1-9 4-17 13-19 1 0 2 0 3 0 8 0 15 5 16 13z m945-13c9 2 15 11 13 19-27 128-104 243-213 317-7 5-18 3-23-4-5-8-3-18 5-23 102-69 174-177 199-296 2-8 8-13 16-13 1 0 2 0 3 0z" horiz-adv-x="1000" />

<glyph glyph-name="ok" unicode="&#xe84a;" d="M786 730l-499-491-71 72c-49 49-128 50-177 2l-2-2c-49-48-50-128-1-177l153-155c2-2 4-4 5-6l2-2c48-49 128-49 177-1l590 580c49 48 49 128 1 177l-1 1c-49 49-128 50-177 2z" horiz-adv-x="1000" />

<glyph glyph-name="pending-request" unicode="&#xe84b;" d="M500-29c-209 0-379 170-379 379s170 379 379 379 379-170 379-379-170-379-379-379z m0 715c-185 0-336-151-336-336s151-336 336-336 336 151 336 336-151 336-336 336z m0-309c-15 0-27-12-27-27 0-15 12-27 27-27s27 12 27 27c0 15-12 27-27 27z m137 0c-15 0-27-12-27-27 0-15 12-27 27-27s26 12 26 27c1 15-12 27-26 27z m-274 0c-14 0-26-12-26-27 0-15 12-27 26-27s27 12 27 27c0 15-12 27-27 27z" horiz-adv-x="1000" />

<glyph glyph-name="medical2" unicode="&#xe84c;" d="M934 628h-181v10c0 36 0 72 0 108s-17 56-53 69c0 0-3 0-3 3h-394c-4 0-4-3-7-3-30-6-49-33-49-62 0-36 0-69 0-109v-16h-181c-36 0-56-17-69-53 0 0 0 0 0-3v-348-293c3-3 3-7 3-10 7-23 30-39 56-39 4 0 7 0 10 0h861c43 0 69 23 69 69v269 339c7 42-20 69-62 69z m-618 95c0 16 16 26 33 26 69 0 141 0 210 0 33 0 66 0 99 0 23 0 36-13 36-36v-89h-378c0 37 0 70 0 99z m187-690c-112 0-200 89-200 200 0 112 88 201 200 201s201-89 201-201c0-108-89-200-201-200z m46 329h-98v-86h-89v-98h89v-89h98v89h86v98h-86v86z" horiz-adv-x="1000" />

<glyph glyph-name="building-1" unicode="&#xe851;" d="M817 392c0-15-13-28-28-28h-15c-16 0-28 13-28 28s13 28 28 28h15c16 0 28-13 28-28z m-28-130h-15c-16 0-28-13-28-28s13-28 28-28h15c16 0 28 12 28 28s-12 28-28 28z m0-149h-15c-16 0-28-13-28-28s13-28 28-28h15c16 0 28 12 28 28s-12 28-28 28z m206 418v-650c0-14-12-26-26-26h-375c-14 0-26 12-26 26v650c0 35 28 64 63 64h50v149c0 27-22 49-50 49h-525c-27 0-49-21-49-49v-837h63c15 0 26-12 26-26 0-14-11-26-26-26h-89c-14 0-26 12-26 26v863c0 56 46 101 101 101h525c56 0 101-45 101-101v-149h199c35 0 64-28 64-64z m-52 0c0 6-5 11-11 11h-301c-6 0-11-5-11-11v-624h323v624h0z m-506-311h-169c-35 0-64-29-64-64v-275c0-14 12-26 27-26s26 12 26 26v275c0 7 5 12 11 12h169c6 0 11-5 11-12v-275c0-14 12-26 26-26 14 0 26 12 26 26v275c0 35-29 64-63 64z" horiz-adv-x="1000" />

<glyph glyph-name="menu" unicode="&#xe852;" d="M500 850c-276 0-500-224-500-500s224-500 500-500 500 224 500 500-224 500-500 500z m-22-779c-87 0-172 0-258 0 0 87 0 172 0 259 85 0 171 0 258 0 0-85 0-172 0-259z m2 316c-85 0-172 0-259 0 0 85 0 172 0 258 87 0 172 0 259 0 0-86 0-171 0-258z m313-186c-22 0-42 0-64 0 0-22 0-45 0-65 20 0 42 0 64 0 0-22 0-42 0-65-20 0-42 0-64 0 0 23 0 45 0 65-22 0-44 0-65 0 0-20 0-42 0-65-22 0-42 0-64 0 0 23 0 43 0 65-21 0-43 0-65 0 0 22 0 42 0 65 22 0 42 0 65 0 0 22 0 44 0 66-22 0-43 0-65 0 0 20 0 42 0 63 20 0 42 0 65 0 0-21 0-43 0-63 22 0 42 0 64 0 0 20 0 41 0 63 22 0 43 0 65 0 0-22 0-43 0-65 20 0 42 0 64 0 0-22 0-42 0-64z m0 186c-86 0-171 0-258 0 0 87 0 172 0 258 85 0 172 0 258 0 0-86 0-171 0-258z m-370-113c-50 0-98 0-148 0 0-49 0-97 0-147 50 0 98 0 148 0 0 50 0 98 0 147z m-37-110c-24 0-48 0-72 0 0 26 0 50 0 74 24 0 48 0 72 0 0-24 0-48 0-74z m343 101c0-20 0-42 0-64-22 0-43 0-65 0 0-21 0-43 0-65-22 0-42 0-64 0 0 22 0 42 0 65 22 0 42 0 64 1 0 20 0 42 0 63 22 0 43 0 65 0z m9 325c-50 0-98 0-148 0 0-50 0-98 0-148 50 0 98 0 148 0 0 50 0 98 0 148z m-37-111c-24 0-48 0-72 0 0 24 0 48 0 72 24 0 48 0 72 0 0-22 0-46 0-72z m-277 109c-49 0-97 0-147 0 0-48 0-96 0-146 50 0 98 0 147 0 0 50 0 98 0 146z m-38-109c-24 0-48 0-72 0 0 24 0 48 0 74 24 0 48 0 72 0 0-24 0-48 0-74z" horiz-adv-x="1000" />

<glyph glyph-name="phone-1" unicode="&#xe853;" d="M886 850h-676c-1 0-2 0-3 0-20 1-42-3-64-11-38-13-63-74-70-92l-19-51a9 9 0 0 1 0-2l-24-77c-4-11-37-113-29-330 8-230 156-398 162-405 13-16 28-24 43-27a29 29 0 0 1 16-5h664c63 0 114 61 114 135v730c0 74-51 135-114 135z m-680-931c-2 2-141 161-148 370-8 213 26 308 26 309a10 10 0 0 1 1 2l23 77 18 51c10 26 27 54 36 58 23 8 46 10 60 4 19-8 70-28 78-32 4-1 24-13 22-25l-67-183c-1-2-5-7-10-6-27 10-40 16-40 16a28 28 0 0 1-39-19c-3-9-54-220 12-371a29 29 0 0 1 18-16 28 28 0 0 1 23 3l25 16c7 1 20 2 24-4 16-22 77-119 87-136 5-14 9-33 8-40-17-14-83-56-124-82-4-1-21-7-33 8z m737 66c0-42-26-78-56-78h-550c28 18 56 37 65 45 31 27 14 82 5 105a23 23 0 0 1-2 4c-3 5-73 115-91 141-23 33-66 31-88 26a26 26 0 0 1-8-4c-29 97-14 216-4 272 4-2 8-3 13-5 35-12 66 9 79 34a38 38 0 0 1 2 4l68 187a17 17 0 0 1 1 3c8 32-9 58-28 74h538c30 0 56-36 56-78z m-99 122a34 34 0 1 0-33 34 34 34 0 0 0 33-34z m-155 0a34 34 0 1 0-33 34 34 34 0 0 0 33-34z m-149 0a34 34 0 1 0-34 34 34 34 0 0 0 34-34z m304 157a34 34 0 1 0-33 33 34 34 0 0 0 33-33z m-155 0a34 34 0 1 0-33 33 34 34 0 0 0 33-33z m-149 0a34 34 0 1 0-34 33 34 34 0 0 0 34-33z m304 156a34 34 0 1 0-33 34 34 34 0 0 0 33-34z m-155 0a34 34 0 1 0-33 34 34 34 0 0 0 33-34z m-149 0a34 34 0 1 0-34 34 34 34 0 0 0 34-34z m304 214a28 28 0 0 0-28-28h-321a28 28 0 0 0 0 56h321a28 28 0 0 0 28-28z" horiz-adv-x="1000" />

<glyph glyph-name="guest" unicode="&#xe854;" d="M460 197c0-6-3-11-8-12-3-1-6-1-8-1-45 0-90 0-135 0-45 0-90 0-135 0-2 0-5 0-7 1-7 1-11 6-9 14 2 13 4 38 9 50 12 37 29 66 59 86 4 3 6 2 10-1 15-15 40-25 61-27 28-4 60 5 82 24 0 0 1 1 1 1 7 6 7 6 14 2 39-27 56-66 65-115 0-3 1-19 1-22z m-151 124c47 0 89 40 89 89 0 50-41 90-89 90-49 0-90-40-90-89 0-50 42-90 90-90z m304 120l-34 0 0-34 34 0 0 34z m54 54l-141 0 0-141 141 0 0 141z m-111-30l81 0 0-81-81 0 0 81z m234-23l-35 0 0-35 35 0 0 35z m53 53l-141 0 0-141 141 0 0 141z m-111-30l81 0 0-81-81 0 0 81z m-119-199l-34 0 0-34 34 0 0 34z m54 53l-141 0 0-140 141 0 0 140z m-111-30l81 0 0-80-81 0 0 80z m181 30l-35 0 0-35 35 0 0 35z m35-35l-35 0 0-35 35 0 0 35z m71 0l-35 0 0-35 35 0 0 35z m-35 35l-36 0 0-35 36 0 0 35z m-71-70l-35 0 0-35 35 0 0 35z m35-35l-35 0 0-35 35 0 0 35z m71 0l-35 0 0-35 35 0 0 35z m-35 35l-36 0 0-35 36 0 0 35z m35-113h-686v-51h686v51z m147 497v-63-591h-980v635 19c0 49 39 88 88 88h804c49 0 88-39 88-88z m-612 12c0-16 14-30 30-30h184c16 0 30 14 30 30 0 17-14 30-30 30h-184c-16 0-30-13-30-30z m538-75h-832c-19 0-34-16-34-35v-477c0-19 15-35 34-35h832c19 0 34 16 34 35v477c0 19-15 35-34 35z" horiz-adv-x="1000" />

<glyph glyph-name="key" unicode="&#xe855;" d="M245 110c-132 0-240 108-240 240 0 133 108 240 240 240 123 0 225-93 239-212h483c16 0 28-12 28-28v-146c0-15-12-28-28-28-15 0-28 13-28 28v118h-167v-104c0-16-13-28-28-28s-28 12-28 28v104h-232c-14-119-116-212-239-212z m0 424c-101 0-184-82-184-184 0-102 83-184 184-184s185 82 185 184c0 102-83 184-185 184z" horiz-adv-x="1000" />

<glyph glyph-name="shift" unicode="&#xe856;" d="M343-145c-27 0-75 1-107 6-11 2-21 4-30 8-11 3-17 6-19 7 0 0 0 1-1 1-1 0-5 3-9 7-7 7-9 16-10 20 0 1-1 2-1 3-2 14 2 31 4 37 2 9 10 43 39 63 12 8 32 18 59 30-1 2-1 4-1 6-3 3-7 8-10 13-8 15-17 37-12 57 2 4 3 8 6 12-1 16-2 44 14 67 24 32 58 34 74 35l2 0c40 2 62-14 74-27 21-24 23-56 22-76 3-6 6-14 6-23 0-24-13-46-21-56-1-2-1-5-2-8 3-1 6-2 9-4 2-1 5-2 7-3 15-6 32-13 48-25 0-1 0-1 0-1 30-25 37-63 38-70 1-5 3-20-1-33-4-14-16-24-26-28-13-7-50-17-152-18z m-121 67c1 0 2 0 2 0 5-2 12-4 20-5 1 0 1 0 2 0 20-4 55-6 97-6 84 1 115 8 124 11 0 1 0 2 0 2 0 1-1 1-1 2-1 6-6 25-18 35-9 7-21 12-34 17-2 2-5 3-7 4-8 3-15 6-21 9-11 5-19 15-23 26-4 12-3 24 2 35 1 0 1 1 1 1 1 3 2 8 3 9 1 5 3 10 6 13 4 5 9 13 11 20 0 0 0 0-1 0-5 7-7 15-5 24 1 7 3 32-7 44-6 6-15 9-29 8l-2 0c-15-1-24-2-31-12-6-8-5-26-4-34 0-10 1-18-4-26-1-1-2-2-2-3 1-3 2-7 5-12 0-1 0-1 1-1 2-5 5-7 5-7 8-6 11-15 10-25 6-11 7-24 3-35-5-12-14-22-25-27-28-11-49-21-59-28 0 0 0 0 0 0-11-7-15-23-16-28 0-1-1-3-1-4-1-2-1-4-2-7z m-6 2l0 0 0 0z m106 124c0 0 0 0-1-1 1 1 1 1 1 1z m-1 6c0 0 0 0 0 0 0 0 0 0 0 0z m86 31c0 0 0 0 0 0 0 0 0 0 0 0z m0 0c0 0 0 0 0 0 0 0 0 0 0 0z m-128 28h0 0z m319-149c-15 0-28 12-28 27-1 16 11 29 27 30 7 0 19 1 29 2-1 7-4 14-7 18-9 10-25 16-38 22-3 1-6 2-8 3-16 7-26 14-28 16-6 5-9 12-10 20 0 8 3 16 9 21 0 1 1 2 2 4 1 2 3 6 3 8 1 4 3 7 5 11 2 2 6 7 8 13-3 4-5 10-5 16v20c-1 20-7 21-15 22-8 1-22 2-27-5-3-2-4-5-4-8-3-15-18-25-33-22-15 4-25 18-22 34 3 12 8 23 15 32 12 15 35 30 78 25 23-3 62-17 64-77 0 0 0 0 0-1v-9c6-9 9-20 6-34-3-16-12-30-17-37 0 0 0 0-1 0 1 0 1 0 1-1 17-7 41-16 58-35 22-24 24-60 24-74 0-13-9-29-30-35 0 0-1 0-1 0-18-4-51-5-54-6-1 0-1 0-1 0z m30 42c0 0 0-1 0-1 0 0 0 1 0 1z m-56 144c0 0 0 0 0 0 0 0 0 0 0 0z m-481-186c0 0-1 0-1 0-4 1-36 2-54 6-1 0-1 0-1 0-21 6-30 22-30 35 0 14 2 50 24 74 17 19 40 28 57 35 1 1 1 1 1 1 0 0 0 0 0 0-5 7-14 21-17 38-3 13 0 24 6 33v9c0 1 0 1 0 1 2 60 41 74 64 77 43 6 66-10 78-25 7-9 12-20 15-32 3-16-7-30-22-34-15-3-30 7-33 22-1 3-2 6-4 8-5 7-19 6-27 5-8-1-14-2-15-22v-20c0-6-2-12-5-16 2-6 6-11 7-14 3-3 5-7 6-11 0-1 1-5 3-7 1-2 2-3 3-4 5-6 8-13 7-21 0-8-4-15-10-20-1-2-11-9-27-16-3-1-5-2-8-3-13-6-29-12-38-22-3-4-6-11-7-18 10-1 22-2 29-2 16-1 28-14 27-30 0-15-13-27-28-27z m-30 42c0 0 0-1 0-1 0 0 0 1 0 1z m55 144c0 0 0 0 0 0 0 0 0 0 0 0z m9 14l0 0 0 0z m688-101c-27 0-50 22-51 49l-3 78c0 16 12 29 28 29 15 1 28-11 28-27l2-35c77 68 122 167 122 271 0 199-162 361-361 361s-362-162-362-361c0-16-12-28-28-28s-28 12-28 28c0 230 187 417 418 417 230 0 417-187 417-417 0-117-49-229-134-307l28 1c15 1 28-12 29-27 1-16-12-29-27-29l-76-3c-1 0-2 0-2 0z m-235 319c-26 0-46 20-46 46 0 3 0 7 1 10l-52 61c-10 12-8 29 3 39 12 10 30 9 40-3l53-62c7 1 14-1 20-4l122 64c14 7 31 2 38-12 7-13 2-30-12-37l-122-65c-5-21-23-37-45-37z" horiz-adv-x="1000" />

<glyph glyph-name="manual-entry" unicode="&#xe857;" d="M615 424v20c0 11 9 20 20 20l0 0c11 0 20-9 20-20v-170c0-27-21-48-48-48h-152c-15 0-30 6-39 18l-105 128c-8 11-7 26 2 36l0 0c11 10 27 10 38 0l41-42c9-8 23-2 23 10v174c0 12 10 22 22 22h0c12 0 22-10 22-22v-126c0-7 5-13 13-13h1c8 0 14 5 14 13v49c0 9 7 17 16 17h0c10 0 17-8 17-17v-49c0-7 6-13 13-13h4c7 0 14 5 14 13v42c0 10 8 19 19 19h0c11 0 20-8 20-19v-42c0-7 5-13 13-13h0c7 0 12 6 12 13z m-85-438l66 81c1 2 3 2 4 2h152c42 0 76 34 76 75v509c0 42-34 76-76 76h-504c-42 0-76-34-76-76v-508c0-42 34-75 76-75h163c2 0 3-1 4-2l52-79 0-1c7-10 19-16 31-17 1 0 1 0 1 0 12 0 23 6 31 15z m-86 102l-1 1c-7 10-19 16-32 16h-163c-23 0-41 18-41 40v508c0 23 18 41 41 41h504c23 0 41-18 41-41v-508c0-23-18-41-41-41h-151c-12 0-24-5-31-14l-67-82c-1-1-2-1-3-1-1 0-3 0-4 1l-52 80z" horiz-adv-x="1000" />

<glyph glyph-name="MA" unicode="&#xe858;" d="M663-145h-578c-44 0-80 38-80 85v764c0 47 36 85 80 85h94v28c0 16 12 28 28 28s28-12 28-28v-28h279v28c0 16 13 28 28 28 16 0 28-12 28-28v-28h93c45 0 81-38 81-85v-134c0-15-13-28-28-28-16 0-28 13-28 28v134c0 16-11 29-25 29h-93v-28c0-16-12-28-28-28-15 0-28 12-28 28v28h-279v-28c0-16-13-28-28-28s-28 12-28 28v28h-94c-13 0-24-13-24-29v-764c0-16 11-29 24-29h578c14 0 25 13 25 29v43c0 16 12 28 28 28 15 0 28-12 28-28v-43c0-47-36-85-81-85z m-149 133c-7 0-13 2-18 7-9 7-12 18-9 29l53 181c1 3 3 7 5 10l275 330c12 15 29 23 47 25 18 2 36-4 50-16l53-44c29-24 33-68 9-97l-275-331c-2-3-6-5-9-7l-169-84c-4-2-8-3-12-3z m69 163l-24-81 76 38-52 43z m25 52l73-61 255 307c5 5 4 13-1 18l-54 44c-3 3-7 3-9 3-2 0-5-1-8-4l-256-307z m-275-139h-168c-16 0-28 13-28 28 0 16 12 28 28 28h168c16 0 28-12 28-28 0-15-13-28-28-28z m0 199h-168c-16 0-28 12-28 28 0 15 12 28 28 28h168c16 0 28-13 28-28 0-16-13-28-28-28z m160 199c-6 0-12 2-17 6l-52 42c-13 9-14 27-5 39 10 12 27 14 40 5l31-25 73 84c10 12 27 13 39 3 12-10 13-28 3-39l-90-105c-6-7-14-10-22-10z m-160 0h-168c-16 0-28 12-28 28 0 15 12 28 28 28h168c16 0 28-13 28-28 0-16-13-28-28-28z" horiz-adv-x="1000" />

<glyph glyph-name="MP" unicode="&#xe859;" d="M724 99c-11 0-21 6-26 17-6 14 0 31 15 37 76 33 126 109 126 193 0 84-50 159-127 193-14 6-20 23-14 37 6 14 22 20 37 14 97-42 160-138 160-244 0-106-63-202-160-245-3-1-7-2-11-2z m-31 97c57 28 94 86 94 150 0 64-37 123-95 150-14 7-30 1-37-13-7-14-1-31 13-37 38-19 63-58 63-100 0-43-24-81-62-100-14-6-20-23-13-37 5-10 15-16 25-16 4 0 8 1 12 3z m82-187c134 59 220 191 220 337 0 146-87 279-221 337-14 6-31 0-37-15-6-14 0-30 15-37 113-49 187-161 187-285 0-124-73-236-187-285-14-7-20-23-14-37 5-11 15-17 26-17 3 0 7 1 11 2z m-416-146l230 215c6 5 9 12 9 20 0 7-3 15-8 20l-222 221v10l222 224c5 5 8 12 8 20s-3 14-8 19l-230 225c-9 8-21 10-31 6-10-5-17-15-17-26v-422l-259 258c-11 11-29 11-40 0-11-11-11-28 0-39l271-270-271-273c-11-11-11-28 0-39 11-11 29-11 40 0l259 261v-410c0-11 7-21 17-26 4-1 7-2 11-2 7 0 14 3 19 8z m171 236l-162-151v312l162-161z m0 493l-162-163v322l162-159z" horiz-adv-x="1000" />

<glyph glyph-name="PE" unicode="&#xe85a;" d="M844 712c0-34 0-67 0-94-26 0-93 0-120 0 0 27 0 27 0 60-20 0-20 0-46 0 0-33 0-31 0-62 0 0-1-1-1-1-76 0-149 0-225 0-5 0-5 9-6 13-18 75-83 128-160 131-91 3-169-67-175-159-5-91 61-169 151-179 84-10 163 45 183 127 2 8 5 16 12 16 142-1 284-1 426-1 3 0 8 1 8 1 0 54 0 94 0 148-20 0-27 0-47 0z m-563-245c-67 0-123 54-123 121 0 68 54 124 123 124 67 0 122-55 122-123 0-67-55-122-122-122z m536-161c-106 1-211 0-316 0-105 0-209 0-314 0-37 1-72-10-103-30-62-42-94-116-80-184 18-90 94-152 186-152 207 0 414 0 621 0 10 0 20 1 30 2 85 10 158 90 159 176 3 102-81 188-183 188z m-610-249c-36 0-66 30-66 66 0 37 30 67 66 67s66-30 66-67c0-36-29-66-66-66z m196 0c-37 0-66 30-66 66 0 37 29 67 66 67s66-30 66-67c0-36-30-66-66-66z m195 0c-36 0-66 30-66 66 0 37 30 67 66 67 37 0 66-30 66-67 0-36-29-66-66-66z m196 0c-37 0-66 30-66 66 0 37 29 67 66 67s66-30 66-67c0-36-30-66-66-66z" horiz-adv-x="1000" />

<glyph glyph-name="PI" unicode="&#xe85b;" d="M772-145h-544c-123 0-223 100-223 223s100 222 223 222h544c123 0 223-100 223-222s-100-223-223-223z m-544 389c-92 0-167-75-167-166s75-167 167-167h544c92 0 167 75 167 167s-75 166-167 166h-544z m545-250c-46 0-83 37-83 84 0 46 37 83 83 83 47 0 84-37 84-83 0-47-38-84-84-84z m0 111c-15 0-27-12-27-27 0-16 12-28 27-28 16 0 28 12 28 28 0 15-12 27-28 27z m-273-111c-46 0-84 37-84 84 0 46 38 83 84 83s84-37 84-83c0-47-38-84-84-84z m0 111c-15 0-28-12-28-27 0-16 13-28 28-28 15 0 28 12 28 28 0 15-13 27-28 27z m-273-111c-46 0-84 37-84 84 0 46 38 83 84 83s83-37 83-83c1-47-37-84-83-84z m0 111c-16 0-28-12-28-27 0-16 12-28 28-28s27 12 27 28c0 15-12 27-27 27z m408 280h-270c-34 0-62 28-62 62v168c0 34 28 62 62 62h6v39c0 71 58 129 129 129 71 0 129-58 129-129v-39h6c34 0 62-28 62-62v-168c0-34-28-62-62-62z m-270 236c-3 0-6-3-6-6v-168c0-4 3-6 6-6h270c3 0 6 2 6 6v168c0 3-3 6-6 6h-270z m62 56h146v39c0 40-33 73-73 73-40 0-73-33-73-73v-39z" horiz-adv-x="1000" />

<glyph glyph-name="WL" unicode="&#xe85e;" d="M790 402c-110 0-200-90-200-200 0-111 90-200 200-200 111 0 200 89 200 200 0 110-90 200-200 200z m-1-293l-121 135 27 12 94-61 97 61 26-10-123-137z m-242 93c0-34 7-67 20-97h-379c-98 0-178 80-178 178 0 66 36 124 89 154 3 145 121 261 267 261 96 0 180-50 227-126 17 5 35 8 54 8 83 0 153-52 181-125 23-7 45-18 64-33-31 15-66 23-102 23-134 0-243-109-243-243z" horiz-adv-x="1000" />

<glyph glyph-name="TI" unicode="&#xe85f;" d="M53 232c2-11-4-21-14-23-10-3-20 3-23 13-5 20-9 41-12 62-3 21-4 43-4 64 0 68 14 132 38 191 26 62 63 117 109 163 8 7 20 7 27 0 7-8 7-20 0-27-43-43-78-93-101-150-23-55-35-114-35-177 0-21 1-40 3-59 3-19 7-39 12-57l0 0z m178 491c-8-6-20-4-26 4-6 9-4 21 5 27 0 0 2 2 4 3l0 0c3 2 6 4 8 6 41 27 85 49 133 63 45 14 94 21 145 21 134 0 256-53 346-140 90-87 148-207 153-341 0-1 0-5 0-9l0-1c1-6 1-13 1-16 0-10-8-19-19-19-10 0-19 9-19 19 0 3 0 9 0 14l0 0c-1 4-1 7-1 10-4 124-57 236-141 316-83 80-196 130-320 130-47 0-92-7-134-20-44-14-86-33-123-58 0 0-3-2-6-4l0 0 0 0c-2-2-4-4-6-5l0 0z m-133-637c85 84 77 140 67 208-3 19-6 39-7 59 0 11-9 19-19 19-10-1-19-9-18-20 1-23 4-44 7-63 8-58 15-106-56-176-7-8-8-20 0-27 7-7 19-8 26 0l0 0z m65 330c16 79 59 148 120 197 59 49 134 78 217 78 65 0 125-19 177-50 54-32 98-79 127-135 28-54 44-136 48-226 3-90-6-187-29-270-3-10 3-20 13-23 10-3 20 3 23 13 24 86 34 188 30 281-4 96-21 184-52 242-32 62-81 114-140 150-58 35-125 55-197 55-92 0-176-32-241-86-67-54-115-131-133-219-2-10 5-20 15-22 11-2 20 4 22 15l0 0z m10-421c53 46 83 91 100 133 17 43 21 82 19 116-1 26-3 47-6 66-6 49-10 87 17 145 19 35 48 65 82 85 34 20 73 32 115 32 46 0 89-14 124-38 37-25 66-60 83-101 9-24 16-55 21-89 5-41 7-86 6-126 0-10 9-19 19-19 10 0 19 8 19 19 1 41-1 88-7 130-5 38-12 72-23 99-20 48-54 89-97 118-42 28-92 44-145 44-49 0-95-13-134-36-41-25-74-59-96-101l-1-1c-32-68-27-110-20-165 2-19 5-40 6-63 1-30-2-64-17-101-15-37-42-77-89-119-8-6-9-18-2-26 6-8 18-9 26-2l0 0z m556 153c1 10 11 18 21 16 10-1 18-10 16-21l0-4c-9-65-19-147-78-247-5-9-17-12-26-6s-12 16-7 25c55 94 65 171 73 232l1 5 0 0z m-356 101c1 11 10 18 20 17 11-1 18-10 17-21 0-1 0-3 0-7-1-42-3-201-141-319-8-7-20-6-27 2-6 8-5 20 2 27 126 106 128 252 128 291 1 5 1 8 1 10l0 0z m28 78c-1 4-2 8-3 12 0 4 0 8 0 13 0 29 11 54 29 72 18 18 43 29 73 29 31 0 54-11 70-28 17-17 28-42 35-70 16-65 12-158-8-248-19-87-52-171-94-224-7-8-6-20 2-26 8-7 20-5 27 3 47 57 82 147 102 239 21 95 25 195 8 265-9 34-23 65-45 88-23 23-55 38-97 38-40 0-75-15-100-40-25-24-40-59-40-98 0-6 0-11 1-17 1-5 2-11 3-17 2-10 12-16 23-14 10 3 16 13 14 23l0 0z m84 20c11-86 10-165-9-239-18-74-54-144-115-212-7-7-6-19 2-26 8-7 20-6 27 1 64 73 103 148 123 228 20 79 20 162 9 252-1 11-11 18-21 17-10-2-18-11-16-21z" horiz-adv-x="1000" />

<glyph glyph-name="PP" unicode="&#xe860;" d="M706 850h-412c-41 0-74-33-74-74v-852c0-41 33-74 74-74h412c41 0 74 33 74 74v852c0 41-33 74-74 74z m-170-937c-3-14-15-26-29-28-26-5-48 17-43 43 2 14 14 26 28 28 26 5 48-17 44-43z m96 596c-1-9-9-17-17-22-24-13-48-24-74-37 20-27 40-52 59-78 12-17 8-36-9-43-15-6-25 0-34 11-9 12-19 25-28 37-9 12-18 24-28 38-20-26-38-51-57-75-10-14-23-17-35-10-16 8-19 25-8 41 19 26 38 51 59 79-25 12-49 24-72 36-19 10-25 24-17 39 7 14 23 18 40 9 21-10 41-20 63-32 0 30 0 58 0 85 0 20 10 32 26 32 16 0 27-12 27-31 1-28 0-55 0-85 24 11 44 23 66 32 9 3 22 2 30-3 6-3 11-16 9-23z" horiz-adv-x="1000" />

<glyph glyph-name="web" unicode="&#xe861;" d="M500 845c-273 0-495-222-495-495s222-495 495-495 495 222 495 495-222 495-495 495z m363-741c-33 20-70 36-111 49 12 52 19 109 21 169h165c-5-80-32-155-75-218z m-363-193c-75 0-143 82-182 203 56 13 118 20 183 20 63 0 125-7 181-20-39-121-107-203-182-203z m1 279c-70 0-137-7-198-22-11 48-18 100-20 154h434c-2-54-9-106-20-154-61 15-128 22-196 22z m-439 132h165c2-60 9-117 21-169-41-13-78-29-111-49-43 63-70 138-75 218z m75 274c33-20 70-36 111-49-12-52-19-109-21-169h-165c5 80 32 155 75 218z m363 193c75 0 143-82 182-203-56-13-118-20-183-20-63 0-125 7-181 20 39 121 107 203 182 203z m-1-279c70 0 137 8 198 22 11-48 18-100 20-154h-434c2 54 9 106 20 154 61-14 128-22 196-22z m274-132c-2 60-9 117-21 169 41 13 78 30 111 49 43-63 70-137 75-218h-165z m55 263c-27-16-58-29-91-40-21 64-49 118-82 159 67-25 126-66 173-119z m-483 119c-33-41-61-95-82-159-33 11-64 24-91 40 47 52 106 94 173 119z m-173-701c27 16 58 29 91 40 21-64 49-118 82-159-67 25-126 67-173 119z m483-119c33 41 61 95 82 159 33-11 64-24 91-40-47-52-106-94-173-119z" horiz-adv-x="1000" />

<glyph glyph-name="eye-off" unicode="&#xe862;" d="M310 105l43 79q-48 35-76 88t-27 114q0 67 34 125-128-65-213-197 94-144 239-209z m217 424q0 11-8 19t-19 7q-70 0-120-50t-50-119q0-11 8-19t19-8 19 8 8 19q0 48 34 82t82 34q11 0 19 8t8 19z m202 106q0-4 0-5-59-105-176-316t-176-316l-28-50q-5-9-15-9-7 0-75 39-9 6-9 16 0 7 25 49-80 36-147 96t-117 137q-11 17-11 38t11 39q86 131 212 207t277 76q50 0 100-10l31 54q5 9 15 9 3 0 10-3t18-9 18-10 18-10 10-7q9-5 9-15z m21-249q0-78-44-142t-117-91l157 280q4-25 4-47z m250-72q0-19-11-38-22-36-61-81-84-96-194-149t-234-53l41 74q119 10 219 76t169 171q-65 100-158 164l35 63q53-36 102-85t81-103q11-19 11-39z" horiz-adv-x="1000" />

<glyph glyph-name="resend" unicode="&#xe864;" d="M1000 333l-125 4c4 141-69 271-191 340-88 49-189 61-285 34-57-16-107-44-149-82l133-129-340-6-6 340 122-118c58 53 128 93 206 115 128 36 263 20 380-45 163-92 261-265 255-453z m-383-133l133-129c-116-104-290-129-433-48-123 69-196 199-192 339l-125 5c-6-188 92-361 255-453 78-43 161-64 244-64 126 0 248 47 342 134l123-118-6 340-341-6z" horiz-adv-x="1000" />

<glyph glyph-name="location-check" unicode="&#xe865;" d="M500 709c-133 0-241-108-241-241 0-133 108-241 241-241 133 0 241 108 241 241 0 133-108 241-241 241z m-54-374c-4-4-10-3-14 0-35 39-71 77-106 115-4 4-3 10 0 13 13 12 26 24 39 36 4 4 10 3 13 0 19-21 38-41 57-62 4-3 10-4 14 0 58 55 117 109 175 164 4 3 10 3 14-1 12-13 24-26 36-39 4-4 4-10 0-13-76-71-152-142-228-213z m54 481c26 0 53-3 79-9 65-14 123-47 168-94 46-48 74-105 83-167 9-61-3-152-29-216-47-120-117-209-198-312l-10-13c-36-46-73-90-93-111-26 24-67 72-107 125-85 112-158 213-200 327-44 117-32 245 32 333 62 86 164 137 275 137m0 34c-120 0-234-55-303-151-76-105-80-248-36-365 45-122 126-232 205-336 45-59 106-131 133-148 13 0 85 87 121 134 86 110 162 204 213 333 26 66 41 163 31 234-20 141-133 257-277 289-29 7-58 10-87 10l0 0z" horiz-adv-x="1000" />

<glyph glyph-name="invitation" unicode="&#xe866;" d="M869-145h-738c-69 0-126 56-126 126v458c0 16 0 65 42 94 1 1 2 1 3 2l114 77v166c0 37 30 67 67 67h538c37 0 67-30 67-67v-166l114-77c1-1 2-2 3-2 42-29 42-78 42-94v-458c0-70-56-126-126-126z m-804 614c-3-8-4-17-4-30v-458c0-39 31-70 70-70h738c39 0 70 31 70 70v458c0 13-1 23-5 31l-106-97c-1-1-2-2-3-2l-221-201c-57-52-151-52-209 0l-330 299z m155-65l213-192c37-34 97-34 134 0l213 193v373c0 6-5 11-11 11h-538c-6 0-11-5-11-11v-374z m-112 102l56-51v89l-56-38z m728 38v-88l56 51-56 37z m-232-207h-208c-16 0-28 13-28 28s12 28 28 28h208c16 0 28-12 28-28s-12-28-28-28z m0 106c-15 0-28 12-28 28v29c0 12-4 24-11 34-18-13-41-21-65-21-24 0-47 8-65 21-7-10-11-22-11-34v-29c0-16-13-28-28-28s-28 12-28 28v29c0 29 11 57 30 78-7 14-11 31-11 48 0 63 51 113 113 113 62 0 113-50 113-113 0-17-4-34-11-48 19-21 30-49 30-78v-29c0-16-12-28-28-28z m-104 240c-31 0-57-25-57-57s26-57 57-57 57 26 57 57-26 57-57 57z" horiz-adv-x="1000" />

<glyph glyph-name="bag" unicode="&#xe867;" d="M883 685h-128v52c0 30-16 59-45 79-27 19-61 29-97 29l-226 0c-36 0-70-10-97-29-29-20-45-49-45-79v-52h-128c-62 0-112-50-112-112v-606c0-62 50-112 112-112h766c62 0 112 50 112 112v606c0 62-50 112-112 112z m-582 52c0 16 13 28 22 34 16 11 40 18 64 18l226 0c24 0 48-7 65-18 8-6 21-18 21-34v-52h-398v52z m-184-108h766c31 0 56-25 56-56v-134c-21-25-139-102-188-102l-501 0c-48 0-168 78-189 102v134c0 31 25 56 56 56z m766-718h-766c-31 0-56 25-56 56v399c11-8 25-17 41-27 36-22 102-58 148-58l500 0c46 0 112 36 148 58 16 10 30 19 41 27v-399c0-31-25-56-56-56z m-383 535c-21 0-37 17-37 37s16 38 37 38 37-17 37-38-16-37-37-37z" horiz-adv-x="1000" />

<glyph glyph-name="lock-group" unicode="&#xe869;" d="M812-145h-624c-58 0-105 47-106 106v390c1 58 48 105 106 105h624c58 0 105-47 106-105v-390c0-59-48-106-106-106z m-624 545c-27 0-50-22-50-49v-390c0-28 23-50 50-50h624c27 0 50 22 50 50v390c0 27-23 49-50 49h-624z m132-456c-15 0-28 12-28 27 0 109 39 130 124 147 6 1 10 3 13 4-2 2-4 5-8 9-26 31-42 65-47 102-4 33 6 68 28 93 22 26 52 41 84 42h28c32-1 62-16 84-42 22-26 32-60 28-93-5-37-21-71-47-102-4-4-6-7-8-9 3-1 8-3 13-4 85-17 125-38 124-147 0-15-13-27-29-27-15 0-27 12-27 28 0 75-13 78-79 91-25 6-52 14-60 39-8 24 7 47 23 65 20 23 31 47 34 73 3 18-3 36-15 50-11 13-26 21-43 22h-24c-16-1-32-9-43-22-12-14-17-32-15-50 3-26 14-50 34-73 16-18 32-41 23-65-8-25-35-33-60-39-65-13-79-16-78-91 0-16-13-28-28-28 0 0 0 0 0 0l-1 0z m482 86c-14 0-26 10-28 23-1 10-5 19-33 26-10 2-36 9-44 33-8 23 10 44 15 51 8 10 13 20 14 32 2 18-4 23-9 26-12 7-18 4-23 1-13-9-30-6-39 6-9 13-7 30 6 39 26 18 56 19 84 2 19-11 41-34 37-79-2-21-9-40-22-58 40-11 64-35 69-70 3-15-7-29-23-32 0 0 0 0 0 0-1 0-3 0-4 0z m-604 0c-1 0-3 0-4 0-15 3-26 17-23 33 5 35 29 58 70 69-14 18-21 37-23 58-4 46 18 68 37 79 29 17 58 17 84-2 13-9 16-26 6-39-9-12-26-15-39-6-5 3-11 6-23-1-5-3-11-8-9-26 1-11 6-22 14-32 6-7 23-28 15-51-8-24-34-30-44-33-28-6-32-16-33-25-2-14-14-24-28-24l0 0z m536 478c-16 0-28 13-28 28 0 0 0 0 0 0v48c-1 113-93 205-206 205s-205-92-206-205v-48c0-15-12-28-27-28-16 0-29 13-29 28 0 0 0 0 0 0v48c1 144 118 261 262 261s261-117 262-261v-48c0-15-13-28-28-28 0 0 0 0 0 0l0 0z" horiz-adv-x="1000" />

<glyph glyph-name="contact" unicode="&#xe86b;" d="M639 340c7 5 13 12 18 19 19 23 29 54 29 85 0 30-10 56-29 76-20 19-47 29-77 29-30 0-57-10-77-29-19-20-29-46-29-76 0-31 10-62 29-85 5-7 11-14 18-19-62-1-132-50-135-117 0-2 0-4 0-5v-30c0-20 16-37 37-37h314c20 0 37 17 37 37v30c0 1 0 3 0 5-3 67-73 116-135 117z m-96 140c9 8 22 13 37 13s29-5 37-13c9-9 13-21 13-36 0-18-6-37-17-51-5-7-17-19-33-19s-28 12-33 19c-11 14-17 33-17 51 0 15 4 27 13 36z m175-273h-276v11c0 0 0 1 0 2 2 38 51 65 83 64 0 0 1 0 1 0 4 0 5 0 10-3 4-3 10-6 17-8 17-6 37-6 54 0 7 2 13 6 17 8 5 3 6 3 10 3 0 0 1 0 1 0 32 1 81-26 83-64 0-1 0-2 0-2v-11z m214 638h-793c-35 0-63-25-63-56v-177h-43c-15 0-28-13-28-28s13-28 28-28h43v-178h-43c-15 0-28-12-28-28 0-15 13-28 28-28h43v-177h-43c-15 0-28-13-28-28 0-16 13-28 28-28h43v-178c0-31 28-56 63-56h793c35 0 63 25 63 56v878c0 31-28 56-63 56z m7-932c-1-1-4-2-7-2h-793c-4 0-6 1-7 2v176h22c10-15 26-24 44-24 29 0 52 23 52 52s-23 52-52 52c-18 0-34-10-44-24h-22v177h22c10-14 26-24 44-24 29 0 52 23 52 52s-23 52-52 52c-18 0-34-10-44-24h-22v178h22c10-15 26-24 44-24 29 0 52 23 52 52s-23 52-52 52c-18 0-34-10-44-24h-22v175c1 1 3 2 7 2h793c3 0 6-1 7-2v-874z m-737 437c0 0 0 0 0 0s0 0 0 0l0 0z" horiz-adv-x="1000" />

<glyph glyph-name="events" unicode="&#xe86c;" d="M929 764h-131v58a28 28 0 1 1-57 0v-58h-482v58a28 28 0 1 1-57 0v-58h-131a71 71 0 0 1-71-71v-772a71 71 0 0 1 71-71h341a28 28 0 0 1 0 57h-341a15 15 0 0 0-14 14v572h886v-149a28 28 0 1 1 57 0v349a71 71 0 0 1-71 71z m-872-214v143a15 15 0 0 0 14 15h131v-107a28 28 0 1 1 57 0v107h482v-107a28 28 0 1 1 57 0v107h131a15 15 0 0 0 14-15v-143h-886z m919-378l-140 20-64 128a29 29 0 0 1-26 16 28 28 0 0 1-25-16l-62-128-139-20a28 28 0 0 1-16-48l101-101-24-140a28 28 0 0 1 28-33 28 28 0 0 1 14 3l124 66 126-66a28 28 0 0 1 41 30l-23 140 101 101a28 28 0 0 1-16 48z m-136-119a28 28 0 0 1-8-25l17-98-89 46a29 29 0 0 1-13 3 28 28 0 0 1-14-3l-86-46 16 98a28 28 0 0 1-8 25l-71 71 98 14a28 28 0 0 1 22 15l43 90 45-90a28 28 0 0 1 22-15l98-14z" horiz-adv-x="1000" />

<glyph glyph-name="group-1" unicode="&#xe86d;" d="M882-145c-4 0-8 1-13 3l-125 66-123-66c-9-5-20-4-29 2-9 6-13 17-11 28l23 138-100 101c-8 7-10 18-7 28 3 10 12 18 22 19l139 19 61 127c5 9 14 15 25 15s21-6 26-15l63-127 138-20c11-1 20-8 23-18s0-22-7-29l-100-100 23-138c2-11-3-22-12-28-5-3-10-5-16-5z m-138 128c4 0 9-1 13-3l88-46-16 97c-1 9 1 18 8 25l70 70-97 14c-9 1-17 7-21 15l-45 89-43-89c-4-9-12-15-21-16l-97-14 70-70c6-6 9-16 8-24l-16-97 86 45c4 3 9 4 13 4z m-68 185l0 0 0 0z m-226 179c-137 0-249 111-249 249s112 249 249 249 249-111 249-249-111-249-249-249z m0 442c-106 0-193-86-193-193s87-193 193-193 193 87 193 193-86 193-193 193z m-389-906v181c0 87 71 157 158 157h265c15 0 28 13 28 28 0 16-13 28-28 28h-265c-118 0-214-96-214-213v-181c0-15 13-28 28-28s28 13 28 28z" horiz-adv-x="1000" />

<glyph glyph-name="apps" unicode="&#xe86f;" d="M905-145h-810c-49 0-90 41-90 90v810c0 50 41 90 90 90h810c49 0 90-40 90-90v-810c0-49-41-90-90-90z m-810 934c-19 0-34-15-34-34v-810c0-19 15-34 34-34h810c19 0 34 15 34 34v810c0 19-15 34-34 34h-810z m646-716h-148c-21 0-37 16-37 36v149c0 20 16 36 37 36h148c20 0 36-16 36-36v-149c0-20-16-36-36-36z m-129 56h109v109h-109v-109z m-204-56h-149c-20 0-36 16-36 36v149c0 20 16 36 36 36h148c21 0 37-16 37-36v-149c0-20-16-36-36-36z m-129 56h109v109h-109v-109z m462 277h-148c-21 0-37 16-37 37v148c0 20 16 36 37 36h148c20 0 36-16 36-36v-148c0-20-16-37-36-37z m-129 56h109v109h-109v-109z m-204-56h-149c-20 0-36 16-36 37v148c0 20 16 36 36 36h148c21 0 37-16 37-36v-148c0-20-16-37-36-37z m-129 56h109v109h-109v-109z" horiz-adv-x="1000" />

<glyph glyph-name="messages-1" unicode="&#xe870;" d="M861 472c0-50-3-100 1-149 6-106-35-194-102-272-65-75-146-132-226-189-18-13-39-17-57-5-114 78-224 159-296 280-27 46-41 97-42 150-1 132 0 263-1 395 0 22 10 29 30 31 27 2 55 4 82 9 85 15 155 61 220 114 22 17 39 20 60 0 81-77 179-114 289-123 40-4 42-7 42-48 0-64 0-129 0-193 0 0 0 0 0 0z m-82 142c0 8-9 22-15 22-87 9-160 48-229 97-24 18-42 18-65 1-68-48-141-84-224-95-24-3-28-13-27-33 0-96 1-192 0-288-1-78 25-145 75-205 55-65 122-116 193-163 7-5 23-3 31 2 80 52 152 114 211 190 26 34 45 72 46 116 1 63 5 300 4 356z m-278 10c-44 0-70-30-67-77 2-26 6-52 10-78 13-71 25-141 39-212 3-14 29-13 32 1 17 96 34 189 47 286 5 55-20 79-61 80z m62-499c0 35-29 66-59 66-40 1-68-26-68-64 1-39 27-65 67-65 32 0 60 29 60 63z" horiz-adv-x="1000" />

<glyph glyph-name="package" unicode="&#xe871;" d="M5 535v-652c0-16 13-28 28-28h934c16 0 28 12 28 28v652l0 17c0 6-2 12-5 17l-187 264c-5 8-14 12-23 12h-566c-10 0-18-5-23-12l-181-265c-3-4-5-9-5-14l0-19z m920 28h-279-56-62v226h238l159-226z m-515-56h180v-193l-76 43c-9 5-19 5-28 0l-76-43v193z m-182 282h244v-226h-62-56-280l154 226z m711-878h-878v596h293v-241c0-10 5-20 14-25 8-5 19-5 27 0l105 59 105-59c4-2 9-3 13-3 5 0 10 1 14 4 9 5 14 14 14 24v241h293v-596z" horiz-adv-x="1000" />

<glyph glyph-name="qr" unicode="&#xe872;" d="M271 124a3 3 0 0 0 3-3v-108a3 3 0 0 0-3-3h-108a3 3 0 0 0-3 3v108a3 3 0 0 0 3 3z m566 0h-108a3 3 0 0 1-3-3v-108a3 3 0 0 1 3-3h108a3 3 0 0 1 3 3v108a3 3 0 0 1-3 3z m161-160h-109a3 3 0 0 1-2-2v-108a3 3 0 0 1 2-3h109a3 3 0 0 1 2 3v108a3 3 0 0 1-2 2z m0 320h-109a3 3 0 0 1-2-3v-108a3 3 0 0 1 2-2h109a3 3 0 0 1 2 2v108a3 3 0 0 1-2 3z m-321-320h-108a3 3 0 0 1-3-2v-108a3 3 0 0 1 3-3h108a3 3 0 0 1 2 3v108a3 3 0 0 1-2 2z m323 489v360a37 37 0 0 1-37 37h-360a37 37 0 0 1-37-37v-360a37 37 0 0 1 37-37h360a37 37 0 0 1 37 37z m-377 340h320v-320h-320z m340 0z m-692-103h-108a3 3 0 0 1-3-3v-108a3 3 0 0 1 3-3h108a3 3 0 0 1 3 3v108a3 3 0 0 1-3 3z m566 0h-108a3 3 0 0 1-3-3v-108a3 3 0 0 1 3-3h108a3 3 0 0 1 3 3v108a3 3 0 0 1-3 3z m-403-237v360a37 37 0 0 1-37 37h-360a37 37 0 0 1-37-37v-360a37 37 0 0 1 37-37h360a37 37 0 0 1 37 37z m-377 340h320v-320h-320z m340 0z m37-906v360a37 37 0 0 1-37 37h-360a37 37 0 0 1-37-37v-360a37 37 0 0 1 37-37h360a37 37 0 0 1 37 37z m-377 340h320v-320h-320z m340 0z" horiz-adv-x="1000" />

<glyph glyph-name="roles" unicode="&#xe873;" d="M530 372v-55c0-16-13-29-29-29-16 0-30 13-30 29v55c0 16 14 29 30 29 16 0 29-12 29-29z m138 96c11-11 17-27 17-43v-154c0-34-28-61-61-61h-248c-34 0-61 27-61 61v154c0 34 27 61 61 61h1v33c1 67 56 122 123 122 68 0 123-55 123-122v-33h1c17 0 32-6 44-18z m-104 18v32c0 35-28 63-63 63s-64-28-64-63v-32h127z m61-59h-248c-1 0-2-1-2-2v-154c0-1 1-2 2-2h247c1 0 2 1 2 2v1h1v153c0 1-1 2-2 2z m287 225c0-20-1-311-2-359 0-57-17-110-49-157-77-117-193-193-315-268-15-9-30-13-46-13-17 1-32 5-46 13-122 75-239 152-315 268-32 47-49 100-49 157-1 48-2 339-2 359 0 40 26 65 70 69l14 1c22 1 45 3 66 7 82 12 148 53 207 95l1 1c7 5 28 19 54 20h1c18 0 36-7 55-21 56-40 124-82 207-95 18-4 36-5 55-7 4 0 9 0 14-1l11 0c44-4 70-29 69-69z m-396-733c117 71 227 143 297 249 26 38 39 80 40 126 0 47 1 338 1 359 0 6 0 8-15 9l-11 1c-30 1-53 4-74 7-94 15-170 62-232 107-8 6-15 9-21 9-7 0-14-3-22-9-60-44-135-92-231-107-24-3-48-5-72-7l-2 0-12-1c-14-1-14-3-14-9 0-21 0-312 1-359 1-46 13-87 39-126 70-106 180-178 297-249 4-3 10-5 16-5 6 0 11 2 15 5z" horiz-adv-x="1000" />

<glyph glyph-name="safety" unicode="&#xe874;" d="M861 472c0-50-3-99 0-149 7-106-34-194-101-271-65-75-146-133-226-190-18-13-39-17-57-5-114 78-224 159-296 280-27 46-41 97-42 150-1 132 0 263-1 395 0 22 10 29 30 31 27 2 55 4 82 9 85 15 155 61 220 114 22 18 39 20 60 0 81-77 179-113 289-123 40-4 42-6 42-48 0-64 0-128 0-193 0 0 0 0 0 0z m-82 142c0 8-9 22-15 22-87 9-160 48-229 98-24 17-42 18-65 1-68-49-141-85-224-96-24-3-28-12-27-33 0-96 1-192 0-287-1-79 25-146 75-205 55-66 122-117 193-164 7-5 23-3 31 3 80 52 152 114 211 189 26 34 45 72 46 116 1 63 5 301 4 356z m-260-108v-138h132v-35h-132v-139h-38v139h-132v35h132v138h38z" horiz-adv-x="1000" />

<glyph glyph-name="user-2" unicode="&#xe876;" d="M500-145c0 0-1 0-1 0-13 0-25 4-36 12-111 75-216 153-285 270-28 47-42 99-43 154-1 74-1 149-1 222 0 49 0 98 0 147 0 33 19 54 54 57l10 1c22 1 43 3 64 7 78 14 141 58 193 101 15 12 29 18 43 19 1 0 3 0 4 0 14-1 28-7 43-19 52-43 115-88 193-101 21-4 42-6 64-7l11-1c34-3 53-24 53-57l0 0c0-49 0-98 0-147 0-73 0-148-1-222-1-55-15-107-43-154-69-117-174-195-285-270-11-8-23-12-36-12-1 0-1 0-1 0z m-310 806c0 0 0-1 0-1 0-49 0-98 0-147 0-72 0-147 1-221 1-46 13-88 35-126 63-107 163-181 268-253 2-1 4-2 6-2 2 0 4 1 5 2 106 72 206 146 269 253 22 38 34 80 35 126 1 74 1 148 1 221 0 49 0 98 0 147 0 0 0 1 0 1-1 0-1 0-2 0l-10 1c-23 2-46 4-70 8-90 16-161 66-218 112-5 4-8 6-10 7-2-1-5-3-10-7-57-46-128-96-219-112-23-4-46-6-69-8l-10-1c-1 0-1 0-2 0z m648-1l0 0 0 0z m-156-513h-139c-20 0-35 16-35 35v103c0 17 12 31 29 34v51c0 23 19 42 42 42h67c23 0 41-19 41-42v-51c17-3 30-17 30-34v-103c0-19-16-35-35-35z m-118 56h97v61h-97v-61z m29 117h38v36h-38v-36z m-282-130c-15 0-28 12-28 28v71c0 56 46 101 102 101h88c15 0 28-12 28-28s-13-28-28-28h-88c-25 0-46-20-46-45v-71c0-16-12-28-28-28z m162 227c-64 0-115 52-115 116s51 115 115 115 115-52 115-115-51-116-115-116z m0 175c-33 0-59-26-59-59 0-33 26-60 59-60s59 27 59 60c0 33-26 59-59 59z" horiz-adv-x="1000" />

<glyph glyph-name="paper-plane" unicode="&#xe877;" d="M0 191q-2 18 14 28l937 625q8 6 18 6t18-6q15-10 13-31l-156-938q-4-13-16-21-7-4-15-4-6 0-12 2l-303 121-64-107q-10-16-28-16t-27 16l-115 201-244 97q-18 8-20 27z m98 11l189-77q2-2 5-3l3-2 527 564z m221-104l87-152 504 787z m183-62q12-2 20-4l265-108 125 748z" horiz-adv-x="1000" />

<glyph glyph-name="report-card" unicode="&#xe878;" d="M783-150h-566c-48 0-87 39-87 87v761c0 48 39 87 87 87h66l0 0c12 0 21-10 21-22s-9-22-21-22l0 0h-66c-24 0-43-19-43-43v-761c0-24 19-44 43-44h566c24 0 43 20 43 44v761c0 24-19 43-43 43h-66l0 0c-12 0-21 10-21 22s9 22 21 22c0 0 0 0 0 0h66c48 0 87-39 87-87v-761c0-48-39-87-87-87z m-66 848c0 0-24 3-43 22l-44 43c0 0-15 22-43 22h-22c0 36-29 65-65 65-36 0-65-29-65-65h-22c-26 0-43-22-43-22l-44-43c-19-19-43-22-43-22-12 0-22-10-22-22 0-12 10-21 22-21h434c12 0 22 9 22 21 0 12-10 22-22 22z m-217 109c12 0 22-10 22-22h-44c0 12 10 22 22 22z m-136-109l20 22c0 0 14 21 39 21h154c25 0 40-21 40-21l20-22h-273z m356-156c0 19-7 26-27 26-66 0-321 0-387 0-18 0-26-7-26-25 0-38 0-75 0-113 0-38 0-77 0-116 0-18 8-25 26-25 66 0 320 0 386 0 21 0 28 7 28 27 0 76 0 151 0 226z m-317-12c32 0 57-26 56-58 0-32-26-58-57-58-32 1-57 27-57 59 0 32 26 57 58 57z m66-201c-58-1-65-1-133-1-18 0-23 10-19 25 6 23 17 44 38 59 4 2 8 2 12 0 17-10 52-11 70 0 4 3 9 2 12 0 22-16 34-37 38-64 1-6-1-19-18-19z m215 55c0-6-4-10-10-10h-152c-6 0-10 4-10 10v1c0 6 4 10 10 10h152c6 0 10-4 10-10v-1z m0 44c0-5-4-10-10-10h-152c-6 0-10 5-10 10v1c0 6 4 11 10 11h152c6 0 10-5 10-11v-1z m0 44c0-5-4-10-10-10h-152c-6 0-10 5-10 10v1c0 6 4 11 10 11h152c6 0 10-5 10-11v-1z m-392-461h416v32h-416v-32z m0 87h416v31h-416v-31z" horiz-adv-x="1000" />

<glyph glyph-name="report-check-2" unicode="&#xe879;" d="M783-150h-566c-48 0-87 39-87 87v761c0 48 39 87 87 87h66l0 0c12 0 21-10 21-22s-9-22-21-22l0 0h-66c-24 0-43-19-43-43v-761c0-24 19-44 43-44h566c24 0 43 20 43 44v761c0 24-19 43-43 43h-66l0 0c-12 0-21 10-21 22s9 22 21 22c0 0 0 0 0 0h66c48 0 87-39 87-87v-761c0-48-39-87-87-87z m-66 848c0 0-24 3-43 22l-44 43c0 0-15 22-43 22h-22c0 36-29 65-65 65-36 0-65-29-65-65h-22c-26 0-43-22-43-22l-44-43c-19-19-43-22-43-22-12 0-22-10-22-22 0-12 10-21 22-21h434c12 0 22 9 22 21 0 12-10 22-22 22z m-217 109c12 0 22-10 22-22h-44c0 12 10 22 22 22z m-136-109l20 22c0 0 14 21 39 21h154c25 0 40-21 40-21l20-22h-273z m324-256c0 0-34-28-62-68-31-46-56-104-56-104s-19 28-42 44c-23 18-50 24-50 24l30 56c0 0 14-8 29-21 17-14 33-32 33-32s33 41 65 68c27 23 53 33 53 33z m-189-134c-20 12-43 18-43 18l47 91c0 0 8-3 26-16 16-12 40-29 40-29s-3 14-5 24c-5 22-20 34-39 39-19 5-35 18-35 18s-2-36-39-36c-43 0-45 26-51 33-2-2-6-6-11-9-9-6-24-8-38-15-12-5-20-16-25-28-7-19-15-68-14-85 1-13 9-15 27-20 107-33 187-7 187-7s-12 12-27 22z m-95 159c0 0-1-5 2-10 3-7 14-29 39-29 30 0 38 21 41 29 2 6 4 13 4 13s15 18 15 36c0 11-6 11-6 11s14 75-55 71c-12-1-31 0-45-19-13-18-6-49-8-52-10-7-4-25 3-37 5-8 10-13 10-13z m-112-456h416v32h-416v-32z m0 87h416v32h-416v-32z" horiz-adv-x="1000" />

<glyph glyph-name="clients" unicode="&#xe87a;" d="M500-150q-35 0-70 3c-94 7-175 30-250 69-67 34-115 76-147 128-27 44-37 90-31 136 5 40 21 77 49 114a28 28 0 1 0 45-35c-22-29-35-56-38-86-4-33 3-66 24-99 26-43 66-78 124-108 68-35 143-56 229-63 108-8 207 4 300 38 65 23 114 53 152 92 42 43 60 86 56 136-3 29-14 56-35 85a28 28 0 0 0 46 34c27-38 42-75 45-114 6-66-18-125-71-181-44-45-101-79-173-106-80-29-166-43-255-43z m0 115h0a29 29 0 0 0-23 12c-27 40-47 83-62 137l-13-5c-40-16-60-44-65-88a28 28 0 0 0-56 6c7 64 41 111 100 135l14 5a56 56 0 0 0 45-1 55 55 0 0 0 29-35c8-31 19-58 31-83 12 24 22 51 32 84a55 55 0 0 0 76 34c16-7 33-15 48-25 38-25 59-64 63-120a28 28 0 1 0-57-4c-2 38-14 62-36 76-13 8-26 15-41 22-15-56-35-100-62-138a28 28 0 0 0-23-12z m1 221c-1 0-3 0-4 0-26 1-61 12-86 59a26 26 0 0 1-6 8c-25 20-37 55-30 84 1 4 4 15 13 22v4c1 61 32 101 85 111a157 157 0 0 0 65-3c28-7 74-31 75-111v-1c8-7 12-17 13-26 4-33-5-58-25-75-7-5-11-12-17-22-19-32-49-50-83-50z m-71 134c-1-8 4-18 10-22a82 82 0 0 0 21-26c13-26 28-29 38-29 6-1 22-1 36 22 7 12 15 26 30 37 2 2 6 5 5 18-10 9-15 22-14 39v1c-1 48-24 54-32 56a98 98 0 0 1-41 2c-18-3-38-12-38-56v-2c0-9 0-27-15-40z m182 34z m-7 10z m-343 30h0a29 29 0 0 0-25 15l-14 27c-13 23-24 49-33 80a250 250 0 0 1-26-14c-16-11-24-28-27-56a28 28 0 0 0-56 4c3 46 21 79 53 100 13 8 26 14 39 20a50 50 0 0 0 42 1 49 49 0 0 0 27-32 382 382 0 0 1 20-55 374 374 0 0 1 20 55 50 50 0 0 0 26 31 50 50 0 0 0 40 1l12-4a28 28 0 0 0-21-53l-5 2c-9-30-20-56-33-80l-14-27a28 28 0 0 0-25-15z m476 0a28 28 0 0 0-25 15l-14 27c-14 24-24 50-33 80l-5-2a28 28 0 0 0-21 53l12 4a50 50 0 0 0 66-32 374 374 0 0 1 20-55c7 16 14 34 20 55a50 50 0 0 0 69 31c13-6 26-12 39-20 32-21 49-54 53-100a28 28 0 1 0-57-4c-2 28-10 46-26 56a250 250 0 0 1-26 14c-9-31-20-57-33-80l-14-27a28 28 0 0 0-25-15z m1 212c-1 0-3 0-4 0-22 1-53 11-74 51a15 15 0 0 1-3 5c-22 17-32 47-26 73 2 8 6 14 10 19v0c1 52 28 86 73 94a131 131 0 0 0 55-2h0c23-6 62-26 63-93a40 40 0 0 0 11-22c4-29-4-51-22-65-5-4-8-9-12-16-17-28-42-44-71-44z m-52 111c1-4 3-9 6-11a72 72 0 0 0 18-23c10-17 19-20 26-20 4 0 15-1 24 16 6 9 13 21 25 31 2 1 2 4 2 7-7 7-12 18-11 34v1c-1 34-15 38-22 39a74 74 0 0 1-30 2c-13-3-26-9-26-39v-2c0-7 0-23-12-35z m113-8z m-539-103c-29 0-54 16-71 44-5 7-8 12-12 15-18 15-26 37-22 66a41 41 0 0 0 10 22c2 67 41 87 64 93a131 131 0 0 0 55 2c45-8 72-42 72-94v0c5-5 8-11 11-19 6-26-4-56-26-73a15 15 0 0 1-4-5c-21-40-51-50-73-50a20 20 0 0 0-4-1z m-49 111c0-3 0-6 2-7 12-10 19-23 25-31 9-17 20-16 24-16 7 0 16 3 26 20a75 75 0 0 0 18 23c3 2 5 7 6 11-12 12-12 28-12 35v2c0 30-13 36-26 39a74 74 0 0 1-30-2c-7-1-21-5-22-39v-1c1-16-4-27-11-34z m-12-8z m-33 37z" horiz-adv-x="1000" />

<glyph glyph-name="clients-glob" unicode="&#xe87b;" d="M416 133c5-11 16-16 27-20 38-11 75-11 113 0 12 4 24 9 30 23 29-24 64-35 100-42 51-10 68-28 72-80 1-17 1-34 3-50 1-18-7-31-21-40-23-16-48-24-75-30-85-18-171-20-257-11-38 4-75 9-110 22-15 6-30 15-44 24-11 7-16 18-15 32 3 27 5 55 9 82 5 27 24 43 51 49 21 4 41 8 61 15 19 6 37 17 56 26z m-340-6c-11-4-24-6-36-9-19-4-31-15-34-34-3-14-3-28-5-42-4-22 7-35 26-43 5-2 9-4 14-5 56-18 114-19 171-17 7 0 8 3 8 9 1 14 2 29 5 44 7 49 28 71 77 82 4 1 8 2 12 3-29 8-58 13-82 32-23-27-95-26-114-1-15-7-28-14-42-19z m806 19c-19-25-91-26-114 1-24-19-53-24-82-32 4-1 8-2 12-3 49-11 70-33 77-82 3-15 4-30 5-44 0-6 1-9 8-9 58-2 115-1 171 17 5 1 9 3 14 5 19 8 30 21 26 43-2 14-2 28-5 42-3 19-15 30-34 34-12 3-24 5-36 9-14 5-27 12-42 19z m-56 217c-11 0-26-2-44-11-16-9-29-22-32-43-2-10-2-20-4-30 0-2 0-4-1-5-8-12-5-39 5-48 3-2 5-5 6-8 9-19 19-36 36-49 22-17 45-18 67-1 18 13 29 31 38 51 1 2 2 4 3 6 13 13 16 33 7 49-1 1-1 3-1 5-1 6-1 13-2 19-2 16-5 32-18 43-8 6-16 11-24 15-7 3-20 7-36 7z m-326 102c-17 0-41-2-68-17-26-14-46-33-52-68-2-15-3-30-5-45 0-3 0-7-2-9-13-18-8-60 8-74 4-4 7-8 9-13 14-30 31-56 57-77 34-26 70-27 104-1 28 20 46 48 59 80 2 3 3 6 6 9 19 20 23 51 10 76-1 3-1 6-2 9-1 9-1 19-2 28-4 26-8 51-29 68-12 9-24 17-38 24-10 4-31 10-55 10z m321 83c-22 148-146 264-295 274-125 8-225-41-296-144-59-86-70-181-40-281 2-4 4-9 7-10 16-8 32-14 48-20-17 34-28 70-31 110 35 0 69 0 102 0 6-35 12-70 18-105-21-12-44-23-66-35 6-27 11-52 17-77 1-4 3-9 7-12 26-23 56-41 89-54 3-1 6-2 11-3-7 12-11 24-18 33-8 11-16 22-27 30-19 17-39 32-59 47 1 1 1 3 1 4 22 11 43 22 64 33 4 18 7 39 11 60 1 7 1 14 0 21-2 19-5 38-8 59 29 0 55 0 82 0 25 12 46 14 62 14 24 0 45-6 55-11 2 0 4-1 6-2 17-1 34-1 52-1 10 0 19 0 30 0-1-11-1-21-3-31-4-23-8-45 0-68 5-14 5-30 6-41 23-12 44-22 65-33 0-1 1-3 1-4-20-16-40-31-61-47-3-2-7-4-9-7-11-18-21-35-33-54 3 0 4 0 4 0 37 13 69 33 98 58 2 1 4 4 4 6 6 26 11 53 16 80-21 12-44 24-66 35 7 35 13 70 19 105 33 0 68 0 102 0-3-40-14-76-31-111 15 6 28 13 42 18 7 2 10 5 12 12 16 50 20 101 12 152z m-505-31c-33 0-67 0-102 0 4 53 20 100 50 143 25-13 49-26 71-38-6-35-12-69-19-105z m34 142c-20 10-40 20-62 32 39 41 83 68 136 83-14-19-28-37-40-55-13-19-22-39-34-60z m130-142c-41 0-81 0-125 0 6 32 12 62 17 91 38-7 72-13 108-19 0-23 0-47 0-72z m0 111c-31 5-61 10-93 16 22 51 53 92 93 129 0-49 0-95 0-145z m40 145c40-36 70-78 93-129-32-6-62-11-93-16 0 49 0 96 0 145z m0-256c0 25 0 49 0 72 35 6 70 12 108 19 6-30 11-59 17-91-43 0-84 0-125 0z m56 256c53-14 97-41 136-82-22-12-42-22-63-33-19 43-43 80-73 115z m209-256c-34 0-68 0-101 0-6 35-13 70-19 105 22 12 46 25 70 38 26-30 53-105 50-143z m-611-154c-11 0-26-2-44-11-16-9-29-22-32-43-2-10-3-20-4-30 0-2 0-4-1-5-8-12-5-39 5-48 3-2 5-5 6-8 8-19 19-36 36-49 22-17 45-18 67-1 18 13 29 31 38 51 1 2 2 4 3 6 13 13 15 33 7 49-1 1-1 3-1 5-1 6-1 13-2 19-2 16-5 32-18 43-8 6-16 11-24 15-7 3-21 7-36 7z" horiz-adv-x="1000" />

<glyph glyph-name="report-man-1" unicode="&#xe87c;" d="M783-150h-566c-48 0-87 39-87 87v761c0 48 39 87 87 87h66l0 0c12 0 21-10 21-22s-9-22-21-22l0 0h-66c-24 0-43-19-43-43v-761c0-24 19-44 43-44h566c24 0 43 20 43 44v761c0 24-19 43-43 43h-66l0 0c-12 0-21 10-21 22s9 22 21 22c0 0 0 0 0 0h66c48 0 87-39 87-87v-761c0-48-39-87-87-87z m-66 848c0 0-24 3-43 22l-44 43c0 0-15 22-43 22h-22c0 36-29 65-65 65-36 0-65-29-65-65h-22c-26 0-43-22-43-22l-44-43c-19-19-43-22-43-22-12 0-22-10-22-22 0-12 10-21 22-21h434c12 0 22 9 22 21 0 12-10 22-22 22z m-217 109c12 0 22-10 22-22h-44c0 12 10 22 22 22z m-136-109l20 22c0 0 14 21 39 21h154c25 0 40-21 40-21l20-22h-273z m90-294c-26 26-38 59-34 96 4 38 40 65 80 65 40 0 76-27 80-65 3-37-8-70-34-96-14-14-31-21-46-22-15 1-32 8-46 22z m109-21c-12-22-23-44-35-69-7 17-12 32-18 47-4 0-6 0-10 0s-7 0-10 0c-6-15-11-30-18-47-12 25-24 47-35 69-96-40-97-55-91-139 52 0 103-1 154-1 52 0 103 1 154 1 6 84 5 99-91 139z m-63-120c-85 0-154-9-154-20s69-20 154-20 154 9 154 20-69 20-154 20z m-208-279h416v32h-416v-32z m0 87h416v32h-416v-32z" horiz-adv-x="1000" />

<glyph glyph-name="report-bar" unicode="&#xe87d;" d="M261 676c0-12 10-22 22-22h434c12 0 22 10 22 22 0 12-10 22-22 22 0 0-24 3-43 22l-44 43c0 0-15 22-43 22h-22c0 36-29 65-65 65-36 0-65-29-65-65h-22c-26 0-43-22-43-22l-44-43c-19-19-43-22-43-22-12 0-22-10-22-22z m239 131c12 0 22-10 22-22h-44c0 12 10 22 22 22z m-117-87c0 0 15 21 40 21h154c25 0 40-21 40-21l19-22h-272l19 22z m487-22v-761c0-48-39-87-87-87h-566c-48 0-87 39-87 87v761c0 48 39 87 87 87h66c12 0 21-10 21-22 0-12-9-22-21-22h-66c-24 0-43-19-43-43v-761c0-24 19-44 43-44h566c24 0 43 20 43 44v761c0 24-19 43-43 43h-66c-12 0-21 10-21 22 0 12 9 22 21 22 0 0 0 0 0 0h66c48 0 87-39 87-87z m-578-674h416v-32h-416v32z m416 55h-416v32h416v-32z m-287 271l171 181-19 18c-2 3-3 6-2 10 2 3 5 5 8 5l74 1c3 0 5-1 7-2 1-2 2-4 2-6l1-74c0-4-2-7-5-9-3-1-7 0-9 2l-23 23-195-207-82 48c-12 7-16 21-10 32 6 12 20 16 32 10l50-32z m44-74c4 0 7-3 7-7v-72c0-4-3-8-7-8h-52c-4 0-7 4-7 8v72c0 4 3 7 7 7h52z m93 71c4 0 7-4 7-8v-142h0c0-4-3-8-7-8h-53c-3 0-6 4-6 8v142c0 4 3 8 6 8h53z m99 68c4 0 7-3 7-8v-210c0-4-3-8-7-8h-53c-3 0-6 4-6 8v210c0 5 3 8 6 8h53z" horiz-adv-x="1000" />

<glyph glyph-name="report-key" unicode="&#xe87e;" d="M783-150h-566c-48 0-87 39-87 87v761c0 48 39 87 87 87h66l0 0c12 0 21-10 21-22s-9-22-21-22l0 0h-66c-24 0-43-19-43-43v-761c0-24 19-44 43-44h566c24 0 43 20 43 44v761c0 24-19 43-43 43h-66l0 0c-12 0-21 10-21 22s9 22 21 22c0 0 0 0 0 0h66c48 0 87-39 87-87v-761c0-48-39-87-87-87z m-66 848c0 0-24 3-43 22l-44 43c0 0-15 22-43 22h-22c0 36-29 65-65 65-36 0-65-29-65-65h-22c-26 0-43-22-43-22l-44-43c-19-19-43-22-43-22-12 0-22-10-22-22 0-12 10-21 22-21h434c12 0 22 9 22 21 0 12-10 22-22 22z m-217 109c12 0 22-10 22-22h-44c0 12 10 22 22 22z m-136-109l20 22c0 0 14 21 39 21h154c25 0 40-21 40-21l20-22h-273z m-72-696h416v32h-416v-32z m0 87h416v32h-416v-32z m51 214l-18-17 30-30c2-2 5-3 8-3 4 0 7 1 9 3l125 125c19-16 43-24 68-24 29 0 57 11 78 32 20 21 32 48 32 78 0 29-12 57-32 77-21 21-49 33-78 33-29 0-57-12-78-33-39-39-42-102-8-145l-49-50-20 21-18-18 20-20-14-15-47 46-17-18 46-46-17-16-20 20z m157 228c18 17 41 27 65 27 24 0 47-10 64-27 18-17 27-40 27-64 0-25-9-48-27-65-17-17-40-26-64-26-24 0-47 9-65 26-35 36-35 94 0 129z m24-49v32h80v-32h-9v22h-62v-23h-9z m80-10h-80v-10h80v10z m-9-20v-21h-62v21h-9v-31h80v31h-9z" horiz-adv-x="1000" />

<glyph glyph-name="report-check" unicode="&#xe87f;" d="M777-140h-554c-47 0-85 38-85 85v746c0 47 38 85 85 85h64l0 0c12 0 21-9 21-21s-9-22-21-22l0 0h-64c-23 0-42-19-42-42v-746c0-23 19-42 42-42h554c23 0 43 19 43 42v746c0 23-20 42-43 42h-64l0 0c-12 0-21 10-21 22s9 21 21 21c0 0 0 0 0 0h64c47 0 85-38 85-85v-746c0-47-38-85-85-85z m-64 831c0 0-24 3-43 21l-42 43c0 0-15 21-43 21h-21c0 35-29 64-64 64-35 0-64-29-64-64h-21c-26 0-43-21-43-21l-42-43c-19-18-43-21-43-21-12 0-21-10-21-21 0-12 9-22 21-22h426c12 0 21 10 21 22 0 11-9 21-21 21z m-213 106c12 0 21-9 21-21h-42c0 12 9 21 21 21z m-134-106l20 21c0 0 14 21 39 21h151c24 0 38-21 38-21l20-21h-268z m-70-676h408v31h-408v-31z m0 85h408v31h-408v-31z m367 422c0 10-11 17-18 17-2 0-4 0-8 0-3 0-8 0-13 0-7 0-8 0-27 0v-30c0-7-6-13-14-13-8 0-14 6-14 13v30c-18 0-41 3-69 3-28 0-43-3-61-3v-30c0-7-6-13-14-13-8 0-14 6-14 13v30c-19 0-29 0-36 0-5 0-10 0-13 0-4 0-6 0-8 0-7 0-9-7-9-17 0-3 0-29 0-57h317c1 28 1 54 1 57z m-318-73c0-75 0-188 0-192 0-6 0-13 10-13 6 0 79 0 145 0s138 0 145 0c13 0 18 7 18 13 0 4 0 117 0 192h-318z m221-75l-68-71c-6-6-11-4-15-1l-41 41c-4 3-4 8 0 12l9 9c3 3 8 3 11 0l28-27 56 58c3 3 8 3 11 0l9-9c3-4 3-9 0-12z" horiz-adv-x="1000" />

<glyph glyph-name="report-man-cross" unicode="&#xe880;" d="M780-145h-559c-48 0-86 39-86 86v753c0 48 38 86 86 86h64l0 0c12 0 22-9 22-21s-10-22-22-22l0 0h-64c-24 0-43-19-43-43v-753c0-23 19-43 43-43h559c23 0 43 20 43 43v753c0 24-20 43-43 43h-65l0 0c-12 0-21 10-21 22s9 21 21 21c0 0 0 0 0 0h65c47 0 86-38 86-86v-753c0-47-39-86-86-86z m-43 818c0-12-10-22-22-22h-430c-12 0-21 10-21 22 0 11 9 21 21 21 0 0 24 3 43 22l43 43c0 0 17 21 43 21h22c0 36 28 65 64 65 36 0 65-29 65-65h21c28 0 43-21 43-21l43-43c19-19 43-22 43-22 12 0 22-10 22-21z m-237 129c-12 0-21-10-21-22h43c0 12-10 22-22 22z m115-86c0 0-14 21-39 21h-152c-25 0-39-21-39-21l-20-22h270l-20 22z m-312-702h412v32h-412v-32z m0 86h412v32h-412v-32z m192 479c40 0 72-32 72-73 0-40-32-72-72-72-40 0-73 32-73 72 0 41 33 73 73 73z m-21-309c0 0 100 0 122 0 38 0 53 37 46 61-26 83-94 104-94 104s-22-20-56-20c-26 0-53 20-53 20s-5-2-12-6c0 0 50-25 61-64 15-57-14-95-14-95z m-85 148c-49 0-88-40-88-88 0-49 39-88 88-88 48 0 87 39 87 88 0 48-39 88-87 88z m46-134l-1-1c-4-4-10-4-13 0l-32 31-28-28c-3-3-9-3-13 0-4 4-4 10 0 14l28 28-32 32c-4 3-4 9 0 13l0 1c4 3 10 3 14 0l32-32 30 30c4 4 10 4 13 0 4-4 4-10 0-13l-30-31 31-31c4-4 4-10 1-13z" horiz-adv-x="1000" />

<glyph glyph-name="report-envelope" unicode="&#xe881;" d="M780-145h-559c-48 0-86 39-86 86v753c0 48 38 86 86 86h64l0 0c12 0 22-9 22-21s-10-22-22-22l0 0h-64c-24 0-43-19-43-43v-753c0-23 19-43 43-43h559c23 0 43 20 43 43v753c0 24-20 43-43 43h-65l0 0c-12 0-21 10-21 22s9 21 21 21c0 0 0 0 0 0h65c47 0 86-38 86-86v-753c0-47-39-86-86-86z m-43 818c0-12-10-22-22-22h-430c-12 0-21 10-21 22 0 11 9 21 21 21 0 0 24 3 43 22l43 43c0 0 17 21 43 21h22c0 36 28 65 64 65 36 0 65-29 65-65h21c28 0 43-21 43-21l43-43c19-19 43-22 43-22 12 0 22-10 22-21z m-237 129c-12 0-21-10-21-22h43c0 12-10 22-22 22z m115-86c0 0-14 21-39 21h-152c-25 0-39-21-39-21l-20-22h270l-20 22z m-321-728h412v32h-412v-32z m0 86h412v32h-412v-32z m376 345h-36l-130-134-145 134h-27v-196h338v196z m-222-37h112c1 0-2 1-2 3v3c0 2 3 4 2 4h-112c-2 0-4-2-4-4v-3c0-2 2-3 4-3z m0 21h112c1 0-2 0-2 2v3c0 2 3 4 2 4h-112c-2 0-4-2-4-4v-3c0-2 2-2 4-2z m215 24h-16l-29 28c-1 0-3 0-3 1v89c0 10-6 21-16 21h-191c-9 0-21-11-21-21v-90c0 0 0 0 0 0l-26-28h-17c-7 0-17-7-17-15v-181c0-7 10-14 17-14h160 0 159c8 0 13 7 13 14v182c0 7-5 14-13 14z m-28-7l-20-19v39l20-20z m-227 134h191c3 0 7-6 7-9v-154l-93-91c-3-3-6-4-9-4-4 0-8 1-11 4l-94 90v155c0 3 6 9 9 9z m-21-114v-39l-20 19 20 20z m277-209c0-1 0-2-1-2h-159-1-159c-1 0-5 1-5 2v182c0 1 4 2 5 2h15l127-123c5-5 11-7 17-8 0 0 1 0 1 0 0 0 0 0 0 0 7 1 13 3 17 8l127 123h15c1 0 1-1 1-2v-182z m-213 194c-1 1-1 2-1 3l0 1c0 2 1 5 1 7 3 19 17 36 36 42-11 8-16 22-12 34 4 13 16 22 29 22 13 0 26-9 29-22 4-13-1-26-12-34 19-6 33-22 36-42 1-3 1-5 1-7l0-1c0-1-1-2-1-3-1 0-1 0-2 0 0 0 0 1-1 1 0 0 0 2 0 2h0c-3 0-4 0-4 2-1 8-2 14-7 21-7 12-18 19-31 21-3 1-6 1-8 1-18 0-34-10-42-27-2-5-3-11-4-17l0 0c0-1 0-1 0-1 0-2-2-3-4-3h0c-1-1-2-1-3 0z m53 56c12 0 22 10 22 22s-10 23-22 23c-12 0-22-10-22-23s10-22 22-22z" horiz-adv-x="1000" />

<glyph glyph-name="report-bar-1" unicode="&#xe882;" d="M780-145h-559c-48 0-86 39-86 86v753c0 48 38 86 86 86h64l0 0c12 0 22-9 22-21s-10-22-22-22l0 0h-64c-24 0-43-19-43-43v-753c0-23 19-43 43-43h559c23 0 43 20 43 43v753c0 24-20 43-43 43h-65l0 0c-12 0-21 10-21 22s9 21 21 21c0 0 0 0 0 0h65c47 0 86-38 86-86v-753c0-47-39-86-86-86z m-43 818c0-12-10-22-22-22h-430c-12 0-21 10-21 22 0 11 9 21 21 21 0 0 24 3 43 22l43 43c0 0 17 21 43 21h22c0 36 28 65 64 65 36 0 65-29 65-65h21c28 0 43-21 43-21l43-43c19-19 43-22 43-22 12 0 22-10 22-21z m-237 129c-12 0-21-10-21-22h43c0 12-10 22-22 22z m115-86c0 0-14 21-39 21h-152c-25 0-39-21-39-21l-20-22h270l-20 22z m-321-720h412v32h-412v-32z m0 86h412v32h-412v-32z m94 252v-125h-49v62l49 63z m40-125h49v138l-49 44v-182l0 0z m90 133v-133h48v177l-48-44z m89-133h48v243l-48-43v-200z m-20 342l33-32 0 0-119-96-70 65-128-156 35-34 93 121 70-65 153 131 32-33 11 110-110-11z" horiz-adv-x="1000" />

<glyph glyph-name="agency" unicode="&#xe883;" d="M723-145h-112c-16 0-29 13-29 28v213h-164v-213c0-15-13-28-28-28h-296c-49 0-89 40-89 89v812c0 49 40 89 89 89h812c49 0 89-40 89-89v-263c0-16-13-28-28-28s-28 12-28 28v263c0 18-15 33-33 33h-812c-18 0-33-15-33-33v-813c0-17 15-32 33-32h267v213c0 16 13 28 28 28h222c15 0 28-12 28-28v-213h84c15 0 28-12 28-28 0-15-13-28-28-28z m156 0c-7 0-14 2-19 7l-89 80c-7 6-10 16-8 26l40 198h-11c-16 0-29 12-29 28v174c0 15 13 28 29 28h174c15 0 28-13 28-28v-174c0-16-13-28-28-28h-12l40-198c2-10-1-20-8-26l-88-80c-6-5-13-7-19-7z m-58 118l58-52 57 52-44 215c-1 9 1 17 6 24s13 10 22 10h18v118h-118v-118h18c8 0 16-4 21-10 6-7 8-15 6-24l-44-215z m-619 22h-36c-16 0-29 13-29 28v36c0 16 13 29 29 29h36c15 0 28-13 28-29v-36c0-15-13-28-28-28z m422 206h-37c-15 0-28 12-28 28v36c0 16 13 28 28 28h37c15 0 28-12 28-28v-36c0-16-13-28-28-28z m-211 0h-37c-15 0-28 12-28 28v36c0 16 13 28 28 28h37c15 0 28-12 28-28v-36c0-16-13-28-28-28z m-211 0h-36c-16 0-29 12-29 28v36c0 16 13 28 29 28h36c15 0 28-12 28-28v-36c0-16-13-28-28-28z m422 206h-37c-15 0-28 12-28 28v36c0 16 13 28 28 28h37c15 0 28-12 28-28v-36c0-16-13-28-28-28z m-211 0h-37c-15 0-28 12-28 28v36c0 16 13 28 28 28h37c15 0 28-12 28-28v-36c0-16-13-28-28-28z m-211 0h-36c-16 0-29 12-29 28v36c0 16 13 28 29 28h36c15 0 28-12 28-28v-36c0-16-13-28-28-28z m632 205h-36c-15 0-28 13-28 29v36c0 15 13 28 28 28h36c16 0 29-13 29-28v-36c0-16-13-29-29-29z m-210 0h-37c-15 0-28 13-28 29v36c0 15 13 28 28 28h37c15 0 28-13 28-28v-36c0-16-13-29-28-29z m-211 0h-37c-15 0-28 13-28 29v36c0 15 13 28 28 28h37c15 0 28-13 28-28v-36c0-16-13-29-28-29z m-211 0h-36c-16 0-29 13-29 29v36c0 15 13 28 29 28h36c15 0 28-13 28-28v-36c0-16-13-29-28-29z" horiz-adv-x="1000" />

<glyph glyph-name="report-clock-envo" unicode="&#xe884;" d="M866-59v753c0 48-39 86-86 86h-65c0 0 0 0 0 0-12 0-21-9-21-21s9-22 21-22l0 0h65c23 0 43-19 43-43v-753c0-23-20-43-43-43h-559c-24 0-43 20-43 43v753c0 24 19 43 43 43h64l0 0c12 0 22 10 22 22s-10 21-22 21l0 0h-64c-48 0-86-38-86-86v-753c0-47 38-86 86-86h559c47 0 86 39 86 86z m-151 753c0 0-24 3-43 22l-43 43c0 0-15 21-43 21h-21c0 36-29 65-65 65-36 0-64-29-64-65h-22c-26 0-43-21-43-21l-43-43c-19-19-43-22-43-22-12 0-21-9-21-21 0-12 9-22 21-22h430c12 0 22 10 22 22 0 11-10 21-22 21z m-215 108c12 0 22-10 22-22h-43c0 12 9 22 21 22z m-135-108l20 22c0 0 14 21 39 21h152c25 0 39-21 39-21l20-22h-270z m-71-706h412v32h-412v-32z m0 86h412v32h-412v-32z m196 434c0-6 0-11 0-17 0-8 0-17 0-25 0-1 0-2-1-3-9-9-19-19-29-28-8 13-9 27-4 42 7 19 23 29 34 31z m16-24c0-7 0-13 0-20 0-1 1-2 2-3 3-2 3-6 2-9-1-3-4-5-8-5-1 0-2-1-3-2-6-6-11-12-17-18-1-2-3-3-5-2-3 1-3 5-1 7 6 6 11 12 17 19 1 1 1 2 1 3 0 3 1 5 3 7 1 1 1 2 1 3 0 13 0 26 0 40 0 1 1 3 2 4 3 2 7 0 7-4 0-7-1-14-1-20z m-4-96c-40 0-72 32-72 71s32 72 72 72c40 0 72-32 72-72s-32-71-72-71z m0 134c-35 0-63-28-63-63s28-62 63-62c35 0 63 28 63 62s-28 63-63 63z m158-100h-15l-34 29v87c0 10-4 19-14 19h-189c-9 0-19-9-19-19v-87l-27-29h-16c-8 0-18-7-18-14v-179c0-8 10-15 18-15h157 0 157c8 0 11 7 11 15v179c0 7-3 14-11 14z m-49 13l19-19-19-19v38z m-210 103c0 4 4 7 7 7h189c4 0 5-3 5-7v-152l-91-90c-3-2-5-3-9-4-3 1-7 2-9 5l-92 89v152z m-12-103v-39l-20 19 20 20z" horiz-adv-x="1000" />

<glyph glyph-name="reprt-clock" unicode="&#xe885;" d="M781-147h-562c-48 0-87 38-87 86v757c0 48 39 86 87 86h65l0 0c12 0 21-9 21-21s-9-22-21-22l0 0h-65c-24 0-43-19-43-43v-757c0-24 19-43 43-43h562c24 0 43 19 43 43v757c0 24-19 43-43 43h-65l0 0c-12 0-21 10-21 22s9 21 21 21c0 0 0 0 0 0h65c48 0 86-38 86-86v-757c1-48-38-86-86-86z m-43 821c0-12-10-21-22-21h-432c-12 0-22 9-22 21 0 12 10 22 22 22 0 0 24 3 43 22l43 43c0 0 17 21 43 21h22c0 36 29 65 65 65 36 0 65-29 65-65h21c29 0 44-21 44-21l43-43c19-19 43-22 43-22 12 0 22-10 22-22z m-260 108h44c0 12-10 22-22 22s-22-10-22-22z m158-86l-20 22c0 0-15 21-39 21h-154c-24 0-39-21-39-21l-20-22h272z m-343-702h414v32h-414v-32z m0 87h414v31h-414v-31z m238 423c0-14 0-28 0-42 0-20 0-40 0-60 0-2 1-5 2-6 23-23 46-46 70-69 19 32 23 67 10 103-16 45-55 69-82 74z m-39-59c0-16 0-31 0-47 0-3-1-5-3-8-7-5-9-14-6-22 3-8 10-13 19-12 4 0 6-2 8-4 13-15 27-30 41-45 3-4 8-6 13-3 6 3 7 10 1 16-13 15-27 30-40 45-2 3-4 5-3 9 1 6-1 12-7 16-3 3-3 5-3 8 0 32 0 63 0 95 0 4-1 8-5 10-7 4-15-1-15-10 0-16 0-32 0-48z m-164-59c0 96 77 173 172 173 95 0 172-77 172-173s-77-173-172-173c-95 0-172 78-172 173z m22 0c0-83 67-151 150-151 83 0 150 68 150 151s-67 151-150 151c-83 0-150-67-150-151z" horiz-adv-x="1000" />

<glyph glyph-name="report-bell" unicode="&#xe886;" d="M781-147h-562c-48 0-87 38-87 86v757c0 48 39 86 87 86h65l0 0c12 0 21-9 21-21s-9-22-21-22l0 0h-65c-24 0-43-19-43-43v-757c0-24 19-43 43-43h562c24 0 43 19 43 43v757c0 24-19 43-43 43h-65l0 0c-12 0-21 10-21 22s9 21 21 21c0 0 0 0 0 0h65c48 0 86-38 86-86v-757c1-48-38-86-86-86z m-43 821c0-12-10-21-22-21h-432c-12 0-22 9-22 21 0 12 10 22 22 22 0 0 24 3 43 22l43 43c0 0 17 21 43 21h22c0 36 29 65 65 65 36 0 65-29 65-65h21c29 0 44-21 44-21l43-43c19-19 43-22 43-22 12 0 22-10 22-22z m-260 108h44c0 12-10 22-22 22-12 0-22-10-22-22z m158-86l-20 22c0 0-15 21-39 21h-154c-24 0-39-21-39-21l-20-22h272z m-334-683h414v31h-414v-31z m0 86h414v32h-414v-32z m177 399c0-40 32-71 72-71s72 31 72 71-32 71-72 71-72-32-72-71z m8-141c5-36 1-47 31-78 8-9 16-13 16-13 45 0 96 0 116 0 38 0 53 35 46 59-25 81-93 102-93 102s-22-19-55-19c-26 0-52 19-52 19s-13-5-27-14c0 1 13-12 18-56z m23-86c-3 4-7 6-14 13-24 23-19 63-28 92-4 14-8 26-20 36-9 8-25 16-53 13-17-3-29-12-38-24-12-19-14-45-17-65-2-13-5-24-7-29-8-22-19-29-27-33-3-2-4-6-4-10 0-3 0-7 0-7s36 0 77 0c3 0 4-22 25-22 29 0 24 22 30 22 42 0 78 0 78 0s2 10-2 14z m-117 179c0-8 6-14 13-14 8 0 14 6 14 14 0 7-6 13-14 13-7 0-13-6-13-13z" horiz-adv-x="1000" />

<glyph glyph-name="forms" unicode="&#xe889;" d="M392 520c11-10 13-28 2-40l-56-65c-5-6-12-9-20-9 0 0-1 0-1 0-7 0-14 2-19 7l-33 31c-12 11-12 28-2 40 11 11 29 12 40 1l12-11 37 43c10 12 28 13 40 3z m324-26h-240c-15 0-28-12-28-28 0-15 13-28 28-28h240c16 0 28 13 28 28 0 16-12 28-28 28z m-362-369h-51c-16 0-28-12-28-28v-51c0-16 12-28 28-28h51c16 0 28 12 28 28v51c0 16-12 28-28 28z m0 197h-51c-16 0-28-12-28-28v-51c0-15 12-28 28-28h51c16 0 28 13 28 28v51c0 16-12 28-28 28z m362-223h-240c-15 0-28-12-28-28 0-15 13-28 28-28h240c16 0 28 13 28 28 0 16-12 28-28 28z m0 198h-240c-15 0-28-13-28-28 0-16 13-28 28-28h240c16 0 28 12 28 28 0 15-12 28-28 28z m279 476v-846c0-40-32-72-72-72h-845c-40 0-73 32-73 72v846c0 40 33 72 73 72h845c40 0 72-32 72-72z m-934 0v-84h878v84c0 9-7 16-16 16h-845c-10 0-17-7-17-16z m878-846v706h-878v-706c0-9 7-16 17-16h845c9 0 16 7 16 16z" horiz-adv-x="1000" />

<glyph glyph-name="report-lock" unicode="&#xe88b;" d="M151 458c0 16 13 28 28 28h408c16 0 28-12 28-28 0-15-12-28-28-28h-408c-15 0-28 13-28 28z m844-341c0-145-117-262-261-262-14 0-28 1-41 3-7-2-15-3-23-3h-573c-51 0-92 43-92 97v796c0 54 41 97 92 97h433c1 0 1 0 1 0 2 0 3 0 5-1 0 0 0 0 0 0 2 0 3 0 5-1 0 0 1 0 1-1 1 0 2-1 4-2 0 0 0 0 1 0 1-1 2-2 3-3l203-205c7-7 9-15 8-23 0-1 1-2 1-3v-230c131-13 233-125 233-259z m-437 523h104l-104 108v-108z m14-729c-42 33-73 78-89 130h-304c-15 0-28 13-28 28 0 16 13 28 28 28h294c-1 6-1 13-1 20 0 42 10 83 29 119h-322c-15 0-28 12-28 28 0 15 13 28 28 28h360c42 46 101 78 166 85v207h-175c-15 0-28 13-28 28v177h-405c-20 0-36-18-36-41v-796c0-23 16-41 35-41h476z m367 206c0 113-92 205-205 205s-206-92-206-205 92-206 206-206 205 92 205 206z m-112 0v-93c0-10-8-19-19-19h-149c-10 0-19 9-19 19v93c0 11 9 19 19 19h4v22c1 39 32 70 71 70 38 0 70-31 70-70v-22h4c11 0 19-8 19-19z m-79-33c0 8-7 14-14 14-8 0-15-6-15-14v-27c0-7 7-14 15-14 7 0 14 7 14 14v27z m27 74c0 23-18 42-41 42-23 0-42-19-42-42v-22h83v22z" horiz-adv-x="1000" />

<glyph glyph-name="report-event" unicode="&#xe88c;" d="M863 692v-748c0-47-38-86-85-86h-556c-47 0-85 39-85 86v748c0 47 38 86 85 86h64c12 0 22-10 22-22 0-12-10-21-22-21h-64c-23 0-43-19-43-43v-748c0-24 20-43 43-43h556c24 0 43 19 43 43v748c0 24-19 43-43 43h-64c-12 0-22 9-22 21 0 12 10 22 22 22 0 0 0 0 0 0h64c47 0 85-39 85-86z m-149 0c0 0-24 3-43 21l-43 43c0 0-14 22-43 22h-21c0 35-29 64-64 64-35 0-64-29-64-64h-22c-26 0-42-22-42-22l-43-43c-19-18-43-21-43-21-12 0-21-10-21-21 0-12 9-22 21-22h428c12 0 21 10 21 22 0 12-9 21-21 21z m-214 107c12 0 21-10 21-21h-42c0 11 9 21 21 21z m-134-107l19 21c0 0 15 22 39 22h152c24 0 39-22 39-22l19-21h-268z m-71-662h410v-31h-410v31z m0 86h410v-32h-410v32z m372 378c0 17-9 30-24 36-13 4-26 2-41 2 0-10 1-20 0-30-2-13-13-22-26-21-12 0-23 10-24 23 0 8 0 15 0 23 0 4-1 5-5 5-31 0-62 0-94 0-4 0-5-2-5-6 0-7 0-14 0-22-1-13-12-23-25-23-12-1-23 9-25 21-1 9 0 17-1 25 0 2-2 5-3 5-11 0-22 1-32-1-19-4-29-19-29-40 0-75 0-150 0-225 0-28 15-43 42-43 83 0 167 0 250 0 27 0 43 15 43 42 0 51 0 102 0 152-1 26 0 52-1 77z m-12-222c0-20-14-35-29-35-91 0-164 0-254 0-15 0-27 17-27 30 0 63 0 117 0 180 0 2 0 4 0 7 104 0 206 0 310 0 0-3 0-5 0-8 0-62 0-111 0-174z m-245 234c0-8 5-13 12-13 8 0 14 4 14 13 1 13 1 26 0 39 0 9-6 13-14 13-7-1-12-5-12-13 0-7 0-13 0-19 0-7-1-13 0-20z m168-13c7 0 12 5 12 14 1 6 0 12 0 19 0 6 1 12 0 19 0 8-5 12-12 13-8 0-14-4-14-12 0-14 0-27 0-40 0-8 6-13 14-13z m-107-158c27-1 49 21 49 48 0 27-21 49-48 49-27 0-48-21-48-48-1-27 21-49 47-49z m40-2c-3 2-7 2-10 0-15-10-45-9-59 0-3 1-7 1-10-1-17-12-27-30-32-49-3-12 1-21 16-21 57 0 63 0 112 1 14 0 16 11 15 16-3 22-14 40-32 54z m64 12c-3 1-6 2-8 0-11-7-32-7-44-3 18-14 29-33 34-56 8 1 18 1 32 1 11 0 13 10 12 14-3 18-11 33-26 44z m-50 5c5-2 11-3 17-3 22-1 40 17 40 40 0 22-17 40-40 40-7 0-14-2-20-5 8-11 13-24 13-39 0-12-4-23-10-33z" horiz-adv-x="1000" />

<glyph glyph-name="contractor" unicode="&#xe88d;" d="M748 597v-69h-82v-17h-165-170v17h-82v69h30c-3 85 35 146 98 192 12-101 29-160 53-161-20 56-32 113-32 175 28 31 65 47 103 46 35-1 71-16 98-46 0-62-12-119-32-175 24 1 41 60 53 161 63-46 101-107 98-192h30z m184-503c-88-147-248-245-431-245-184 0-344 98-432 245 7 13 25 38 70 60 36 18 81 34 120 50 14 6 28 12 42 17 38 15 56 23 74 58 4 8 7 14 8 20-46 43-81 114-90 207h23c10-109 59-184 117-217 11-6 23-11 34-14 11-2 22-4 34-4 11 0 22 2 32 4 12 3 23 8 34 14 58 33 107 108 118 217h23c-9-93-44-163-89-207 1-5 3-12 8-20 18-35 36-43 73-58 14-5 29-11 43-17 39-16 83-32 119-50 45-22 63-47 70-60z m-303 123l-31 65c-7-5-13-9-19-13-13-7-27-12-40-16-12-3-25-4-38-4-14-1-27 1-39 4-14 4-27 9-40 16-6 4-12 8-18 12l-32-64c45-30 88-66 129-108 41 42 83 78 128 108z" horiz-adv-x="1000" />

<glyph glyph-name="report-check-1" unicode="&#xe891;" d="M278 779c0 16 0 32 0 49 0 8 3 15 10 19 6 4 15 4 21 0 8-5 11-12 11-21 0-16 0-31 0-48h360c0 13 0 25 0 37 0 5 0 10 0 15 1 12 10 20 21 20 11 0 21-9 21-21 0-14 0-28 0-42 0-3 0-5 0-9 4 0 8 0 11 0 34 0 68-1 102 0 43 2 87-40 87-89-1-246 0-492 0-738 0-9 0-18-1-27-6-42-44-74-87-74-222 0-445 0-668 0-49 0-88 39-88 88 0 251 0 501 0 752 0 50 39 88 89 88 35 0 71 0 107 0 1 0 1 0 4 1z m444-43c0-4 0-7 0-10 0-17 0-33 0-50 0-12-10-21-21-21-11 0-20 9-21 21 0 4 0 9 0 13 0 16 0 31 0 47h-360c0-8 0-16 0-23 0-13 0-25-1-38 0-12-9-20-21-20-11 0-19 9-20 21-1 4 0 8 0 12 0 16 0 32 0 49-16 0-30 0-45 0-23 0-47 0-71-1-22 0-41-17-42-39-1-5-1-9-1-14 0-35 0-71 0-106 0-214 0-427 0-640 0-30 16-45 46-45 209-1 417-1 625 0 19 0 39-1 58 1 16 1 29 14 31 29 1 9 1 18 1 26 0 198 0 396 0 593 0 51 0 101 0 151 0 27-13 43-38 44-40 1-79 0-120 0z m-509-179h574c19 0 34-15 34-34v-545c0-19-15-34-34-34h-574c-19 0-34 15-34 34v545c0 19 15 34 34 34z m532-42h-490c-19 0-34-15-34-33v-463c0-18 15-34 34-34h490c19 0 34 16 34 34v463c0 18-15 33-34 33z m-387-424c41 39 82 79 123 119 7 6 11 13 8 23-4 16-23 20-36 7-38-36-75-72-113-109-3-3-6-5-11-10-2 3-4 7-6 10-10 10-20 21-31 31-9 8-21 8-29 0-8-7-9-20-2-28 23-23 46-46 70-69 9 8 18 17 27 26z m125 337c9 9 9 21 1 29-8 9-21 9-30 0-22-21-43-41-65-62-19-19-38-38-59-57-13 13-25 26-38 39-9 9-21 9-30 0-8-8-8-20 0-29 23-22 45-45 69-68 51 50 102 99 152 148z m19-64c-13 0-23-9-23-21 0-12 9-21 23-21 65 0 129 0 193 0 15 0 24 8 24 21 0 13-9 21-24 21-32 0-64 0-96 0-32 0-64 0-97 0z m2-201c-5 0-10-1-14-3-9-4-12-13-10-22 2-11 10-16 22-16 64 0 128 0 192 0 15 0 24 7 25 20 0 13-9 21-25 21-32 0-64 0-96 0-31 0-63 0-94 0z" horiz-adv-x="1000" />

<glyph glyph-name="time-history" unicode="&#xe892;" d="M988 246c-49-213-237-362-459-362l-8 0c-104 2-198 37-280 103-112 92-169 210-174 362l-1 14h-66l109 109 109-110h-40c-14 0-23 0-30-7-7-8-6-17-5-30 1-12 2-23 3-35 30-192 193-332 388-332 22 0 45 1 67 5 105 18 195 77 256 166 61 89 83 196 61 300-38 184-197 313-386 313-96 0-185-34-258-98-8-7-15-15-23-23-1 0-2-1-3-2l-54 49c84 93 211 148 341 148 68 0 133-15 195-43 201-94 307-311 258-527z m-345-13c-29 29-58 59-88 88-8 8-12 16-12 28 1 75 1 150 1 226 0 6 0 13 0 20-20 0-36 0-53 0-1-4-1-7-1-11 0-87-1-175 0-263 0-6 4-14 8-19 16-17 33-33 50-50 23-23 47-47 70-71 14 14 25 25 38 38-4 5-8 9-13 14z" horiz-adv-x="1000" />

<glyph glyph-name="excel" unicode="&#xe894;" d="M593 717h390c8 0 15-7 15-15v-704c0-8-7-16-15-16h-390v83h109v106h-109v50h109v105h-109v50h109v106h-109v50h109v106h-109v79l0 0z m156-79v-106h187v106h-187l0 0z m0-467v-106h187v106h-187l0 0z m0 155v-105h187v105h-187l0 0z m0 156v-106h187v106h-187l0 0z m-747 273l560 95v-1000l-560 95v810l0 0z m137-572l78-7 65 116 62-130 80-8-105 206 99 187-77-7-59-124-59 113-80-8 99-164-103-174z" horiz-adv-x="1000" />

<glyph glyph-name="city" unicode="&#xe89b;" d="M500 790c199 0 360-162 360-361 0-15 13-27 28-27 15 0 28 12 28 27 0 230-187 416-416 416-111 0-215-43-294-122-78-78-122-183-122-294 0-39 6-79 17-116 4-12 15-20 27-20h97c7 0 14 3 19 8 5 5 8 12 8 19v160h43c16 0 28 13 28 28v46h29v-118c0-15 12-28 28-28h14v-88c0-15 13-27 28-27h86c16 0 28 12 28 27v320h31v-320c0-15 13-27 28-27h86c15 0 28 12 28 27v149h29v-149c0-15 13-27 28-27h50c-101-159-221-282-317-373-105 88-209 192-318 317-5 5-12 9-19 9-7 1-15-2-20-7-12-10-13-27-3-39 118-135 230-245 343-339 5-4 11-6 18-6 7 0 14 3 19 7 113 107 258 253 371 444 5 9 5 20 0 28-5 9-15 14-24 14h-72v149c0 15-13 27-28 27h-85c-15 0-28-12-28-27v-149h-30v320c0 15-13 28-28 28h-87c-15 0-27-13-27-28v-320h-31v88c0 16-13 28-28 28h-15v117c0 16-12 28-27 28h-85c-15 0-28-12-28-28v-45h-43c-15 0-27-13-27-28v-160h-48c-6 27-9 54-9 81 0 199 161 361 360 361z" horiz-adv-x="1000" />

<glyph glyph-name="minus-circled" unicode="&#xe89c;" d="M679 314v72q0 14-11 25t-25 10h-429q-14 0-25-10t-10-25v-72q0-14 10-25t25-10h429q14 0 25 10t11 25z m178 36q0-117-57-215t-156-156-215-58-216 58-155 156-58 215 58 215 155 156 216 58 215-58 156-156 57-215z" horiz-adv-x="857.1" />

</font>
</defs>
</svg>
